<?xml version="1.0" encoding="UTF-8"?>
<svg version="1.1" xmlns="http://www.w3.org/2000/svg" width="4500" height="4500">
<path d="M0 0 C1.57255554 0.00373123 1.57255554 0.00373123 3.17687988 0.00753784 C90.85245914 0.32797735 186.89487423 31.72965263 252.375 91.3125 C251.10924249 93.95648662 249.73824713 96.36117577 248.046875 98.75390625 C247.58418213 99.4099585 247.12148926 100.06601074 246.64477539 100.74194336 C246.14324951 101.44585205 245.64172363 102.14976074 245.125 102.875 C244.33307251 103.99177124 244.33307251 103.99177124 243.52514648 105.13110352 C238.97410438 111.52412318 234.32776388 117.84512811 229.65917969 124.15258789 C225.69323718 129.51248413 221.76917367 134.90026869 217.875 140.3125 C212.83506391 147.31475341 207.73286473 154.26863449 202.60546875 161.20703125 C198.66084596 166.55107676 194.75530944 171.92160781 190.875 177.3125 C185.84014839 184.30739116 180.74455416 191.25504316 175.62084961 198.18505859 C171.51884819 203.74024567 167.46796512 209.33025196 163.4375 214.9375 C159.20325172 220.82603861 154.92128283 226.65857735 150.375 232.3125 C146.75720417 230.74394516 144.14962716 228.51943876 141.1875 225.9375 C98.30431504 189.62092786 42.3042517 170.77663874 -13.71679688 174.51904297 C-50.15582798 177.80850499 -84.63176212 192.27924105 -113.625 214.3125 C-114.55828125 215.00214844 -115.4915625 215.69179687 -116.453125 216.40234375 C-130.42894734 227.22717547 -143.73056023 240.65407071 -153.625 255.3125 C-154.08922363 255.99183594 -154.55344727 256.67117188 -155.03173828 257.37109375 C-171.09657164 281.12137679 -181.86366074 307.01139741 -186.625 335.3125 C-186.74214355 336.0019873 -186.85928711 336.69147461 -186.97998047 337.40185547 C-194.560099 384.26793748 -181.61978394 434.00762047 -154.4375 472.625 C-149.89860145 478.90291767 -144.94503029 484.68135683 -139.625 490.3125 C-138.49537767 491.64191948 -137.37020688 492.97513718 -136.25 494.3125 C-104.93013117 529.98433238 -55.85257027 549.25452157 -9.625 554.3125 C-8.22894531 554.47878906 -8.22894531 554.47878906 -6.8046875 554.6484375 C37.59011788 559.02872496 88.7048829 552.11039271 124.375 523.3125 C145.26665377 505.85081924 158.17315089 483.1049265 161.0625 455.875 C161.165625 454.699375 161.26875 453.52375 161.375 452.3125 C161.705 451.6525 162.035 450.9925 162.375 450.3125 C109.905 450.3125 57.435 450.3125 3.375 450.3125 C3.375 404.7725 3.375 359.2325 3.375 312.3125 C121.185 312.3125 238.995 312.3125 360.375 312.3125 C363.93729004 336.06110027 363.93729004 336.06110027 364.54296875 342.93359375 C364.62234177 343.82904404 364.70171478 344.72449432 364.78349304 345.64707947 C365.71701114 357.20830392 365.72538028 368.78311635 365.6875 380.375 C365.68567719 381.5374826 365.68385437 382.69996521 365.68197632 383.89767456 C365.63542553 401.56225963 365.09646709 418.83189546 362.375 436.3125 C362.12556641 437.99811035 362.12556641 437.99811035 361.87109375 439.71777344 C350.47383628 515.21405119 314.95428287 583.97454752 259.375 636.3125 C258.385 636.9725 257.395 637.6325 256.375 638.3125 C262.12136818 640.31942447 267.90401276 642.0341037 273.78320312 643.60644531 C321.77217161 656.50556476 371.53821358 678.60276216 408.07421875 713.15234375 C410.0609002 715.01759815 412.08638254 716.80165585 414.1484375 718.58203125 C418.36182165 722.25595341 422.36235801 726.10850139 426.3125 730.0625 C427.00617676 730.75553223 427.69985352 731.44856445 428.41455078 732.16259766 C433.18475252 736.98185032 437.59264597 741.93041821 441.7734375 747.2734375 C443.36061294 749.37765511 443.36061294 749.37765511 445.375 751.3125 C445.705 551.3325 446.035 351.3525 446.375 145.3125 C507.425 145.3125 568.475 145.3125 631.375 145.3125 C631.375 343.6425 631.375 541.9725 631.375 746.3125 C646.555 746.3125 661.735 746.3125 677.375 746.3125 C685.26467533 762.99951243 693.14043909 779.68375582 700.75 796.5 C706.18156676 808.50143276 711.66160163 820.47918357 717.1875 832.4375 C717.75058365 833.65634384 717.75058365 833.65634384 718.32504272 834.89981079 C721.00698791 840.70467602 723.69076143 846.50869497 726.375 852.3125 C729.43876752 858.93691466 732.50168361 865.56172118 735.5625 872.1875 C735.93864441 873.00166382 736.31478882 873.81582764 736.70233154 874.65466309 C742.0852075 886.30960115 747.41821125 897.9861631 752.71517944 909.68035889 C758.43688751 922.30705869 764.26292444 934.88428169 770.10324097 947.45648193 C775.41151839 958.88576715 780.67811941 970.33214246 785.875 981.8125 C791.45379481 994.1355871 797.11497831 1006.41886791 802.8125 1018.6875 C808.72552468 1031.42036171 814.61190129 1044.16438683 820.4375 1056.9375 C826.0505979 1069.24441635 831.69984294 1081.53407586 837.375 1093.8125 C843.06945003 1106.13326052 848.74011964 1118.46438061 854.375 1130.8125 C859.99084341 1143.11809954 865.63943034 1155.40817709 871.3125 1167.6875 C877.20023614 1180.4316746 883.07850769 1193.18008223 888.9375 1205.9375 C889.28659424 1206.69756348 889.63568848 1207.45762695 889.99536133 1208.24072266 C892.80655921 1214.3616176 895.61686913 1220.48292012 898.42712402 1226.60424805 C900.88849272 1231.96552648 903.35031055 1237.32659845 905.8125 1242.6875 C906.16093964 1243.44625427 906.50937927 1244.20500854 906.86837769 1244.98675537 C910.87548557 1253.71168016 914.88986014 1262.43318641 918.91796875 1271.1484375 C919.29591583 1271.96620667 919.67386292 1272.78397583 920.06326294 1273.62652588 C920.82708677 1275.2791751 921.59091123 1276.93182402 922.35473633 1278.58447266 C922.73267334 1279.40222168 923.11061035 1280.2199707 923.5 1281.0625 C923.87809814 1281.88057129 924.25619629 1282.69864258 924.64575195 1283.54150391 C930.04810443 1295.23369693 935.40073863 1306.94730964 940.71490479 1318.67980957 C946.43671216 1331.30668868 952.26283838 1343.88409644 958.10324097 1356.45648193 C963.7119234 1368.53257104 969.27056345 1380.62936313 974.75637817 1392.76174927 C978.63204346 1401.33125946 982.55650836 1409.8764687 986.52734375 1418.40234375 C986.9662796 1419.34554474 987.40521545 1420.28874573 987.85745239 1421.26052856 C990.02746139 1425.92219028 992.20186327 1430.58172799 994.3828125 1435.23828125 C995.17070847 1436.92832223 995.95847541 1438.61842337 996.74609375 1440.30859375 C997.29800636 1441.48106911 997.29800636 1441.48106911 997.86106873 1442.67723083 C1000.375 1448.08567142 1000.375 1448.08567142 1000.375 1450.3125 C933.385 1450.3125 866.395 1450.3125 797.375 1450.3125 C794.19078784 1443.94407568 791.14138447 1437.66897707 788.37109375 1431.1328125 C788.00709976 1430.28113495 787.64310577 1429.4294574 787.26808167 1428.55197144 C786.11333966 1425.84836619 784.96278875 1423.14300249 783.8125 1420.4375 C783.06994915 1418.69649185 782.32711195 1416.95560581 781.58398438 1415.21484375 C779.17988401 1409.58120083 776.77748521 1403.9468319 774.375 1398.3125 C770.415 1389.0725 766.455 1379.8325 762.375 1370.3125 C676.905 1369.9825 591.435 1369.6525 503.375 1369.3125 C503.045 1370.9625 502.715 1372.6125 502.375 1374.3125 C501.86892834 1375.67607743 501.31726564 1377.02351868 500.72363281 1378.35131836 C500.38483597 1379.11600937 500.04603912 1379.88070038 499.69697571 1380.66856384 C499.14314461 1381.8980349 499.14314461 1381.8980349 498.578125 1383.15234375 C497.99982185 1384.45305565 497.99982185 1384.45305565 497.40983582 1385.78004456 C496.15274108 1388.60540014 494.8888708 1391.42766996 493.625 1394.25 C491.88973388 1398.14355631 490.15779362 1402.03858917 488.42578125 1405.93359375 C487.99447403 1406.90223358 487.56316681 1407.87087341 487.11878967 1408.86886597 C484.4778533 1414.80639788 481.86584109 1420.75531897 479.29296875 1426.72265625 C478.98986786 1427.42559311 478.68676697 1428.12852997 478.3744812 1428.85276794 C476.98162693 1432.08727549 475.59390352 1435.32392669 474.20996094 1438.56225586 C473.72688477 1439.68639893 473.24380859 1440.81054199 472.74609375 1441.96875 C472.33286865 1442.93619141 471.91964355 1443.90363281 471.49389648 1444.90039062 C470.375 1447.3125 470.375 1447.3125 468.375 1450.3125 C465.66330609 1450.60684334 463.17976542 1450.70366317 460.46578979 1450.67326355 C459.63920337 1450.67582682 458.81261694 1450.6783901 457.96098244 1450.68103105 C455.17545355 1450.68599487 452.39045989 1450.66943349 449.60498047 1450.65307617 C447.61456312 1450.65223046 445.62414483 1450.65270395 443.63372803 1450.65440369 C438.21658254 1450.65526725 432.79963483 1450.63758321 427.38253546 1450.61668181 C421.72639808 1450.59797499 416.07025656 1450.59616932 410.41409302 1450.59260559 C399.69724401 1450.58326746 388.98048641 1450.5586298 378.26367772 1450.52855712 C366.06556913 1450.49506805 353.86745627 1450.47854094 341.66931319 1450.46347082 C316.57115805 1450.43208176 291.47308414 1450.37928697 266.375 1450.3125 C266.83440842 1448.89982559 267.29687324 1447.48814497 267.76057434 1446.07687378 C268.01777158 1445.29063566 268.27496881 1444.50439754 268.53995991 1443.69433403 C269.86640682 1439.91083139 271.55027614 1436.31715792 273.26171875 1432.6953125 C273.63549652 1431.89361633 274.00927429 1431.09192017 274.39437866 1430.26593018 C275.19587269 1428.54810413 275.99953966 1426.83129051 276.8052063 1425.11541748 C278.52593756 1421.45042153 280.23589613 1417.78043425 281.94633484 1414.11062622 C282.82254636 1412.23073051 283.69926777 1410.35107238 284.57649231 1408.47164917 C288.57627396 1399.89781877 292.51527472 1391.29701984 296.4375 1382.6875 C301.68954074 1371.16772642 306.97545572 1359.66415946 312.28863525 1348.17245483 C318.4145437 1334.92232608 324.51758415 1321.66229778 330.5625 1308.375 C331.01014206 1307.39246246 331.01014206 1307.39246246 331.46682739 1306.39007568 C335.86268471 1296.73755228 340.14535591 1287.03884278 344.375 1277.3125 C343.80394531 1277.59859131 343.23289062 1277.88468262 342.64453125 1278.17944336 C283.65875686 1307.53752602 216.76123888 1321.58297322 150.97485352 1321.42602539 C149.28793337 1321.42574253 147.6010131 1321.42590318 145.91409302 1321.4264679 C141.38412295 1321.42675201 136.85417996 1321.42091831 132.32421613 1321.41389394 C127.57169057 1321.40759553 122.81916422 1321.40705151 118.06663513 1321.40586853 C109.08918105 1321.40277419 100.11173931 1321.39458665 91.13429064 1321.38451904 C80.90439304 1321.37329863 70.67449482 1321.36783258 60.4445926 1321.36282361 C39.42138821 1321.35240224 18.39819488 1321.33483994 -2.625 1321.3125 C-2.61833817 1322.53484848 -2.61167633 1323.75719696 -2.60481262 1325.0165863 C-2.543467 1336.64924047 -2.49877452 1348.28186097 -2.46956348 1359.91464138 C-2.45404004 1365.89230127 -2.43305159 1371.86982852 -2.39868164 1377.84741211 C-2.36560501 1383.63762235 -2.34804747 1389.42770665 -2.34036827 1395.21800423 C-2.33490997 1397.40511108 -2.3242578 1399.59221263 -2.30780983 1401.77926445 C-2.16204125 1422.00320036 -3.69699502 1442.13556077 -8.3125 1461.875 C-8.56596191 1462.98157959 -8.81942383 1464.08815918 -9.08056641 1465.22827148 C-13.36306297 1483.26382466 -19.47861078 1500.66538259 -27.625 1517.3125 C-28.05796387 1518.20291992 -28.49092773 1519.09333984 -28.93701172 1520.01074219 C-45.56171236 1553.86194259 -69.76238841 1585.04025786 -99.625 1608.3125 C-100.63175781 1609.11300781 -101.63851562 1609.91351562 -102.67578125 1610.73828125 C-116.16689719 1621.38719108 -130.46016301 1630.24957768 -145.625 1638.3125 C-146.26985352 1638.66022461 -146.91470703 1639.00794922 -147.57910156 1639.36621094 C-186.42156598 1660.20008117 -232.57215789 1672.31227597 -276.72265625 1672.515625 C-278.25900978 1672.52614647 -278.25900978 1672.52614647 -279.82640076 1672.53688049 C-283.11347909 1672.55428709 -286.40037727 1672.56073279 -289.6875 1672.5625 C-291.37214355 1672.56351212 -291.37214355 1672.56351212 -293.09082031 1672.56454468 C-309.4817527 1672.54888101 -325.44205489 1672.13254739 -341.625 1669.3125 C-342.67333008 1669.14089355 -343.72166016 1668.96928711 -344.80175781 1668.79248047 C-402.31270976 1659.26972888 -456.54581029 1633.92500085 -498.625 1593.3125 C-499.29998535 1592.66474609 -499.9749707 1592.01699219 -500.67041016 1591.34960938 C-510.141496 1582.21868677 -518.86388087 1572.93780527 -526.625 1562.3125 C-527.48306152 1561.16144983 -528.34113451 1560.01040823 -529.19921875 1558.859375 C-535.23774788 1550.66915961 -540.62886997 1542.17371433 -545.625 1533.3125 C-546.05425781 1532.55646484 -546.48351563 1531.80042969 -546.92578125 1531.02148438 C-563.46857813 1501.58293373 -573.09233058 1469.6911803 -577.625 1436.3125 C-577.73102539 1435.53277832 -577.83705078 1434.75305664 -577.94628906 1433.94970703 C-578.60656521 1428.6295377 -578.625 1423.75428087 -578.625 1418.3125 C-609.315 1418.3125 -640.005 1418.3125 -671.625 1418.3125 C-671.955 1328.5525 -672.285 1238.7925 -672.625 1146.3125 C-682.59950486 1160.05331199 -682.59950486 1160.05331199 -692.25 1174 C-696.55531228 1180.34816895 -700.96845014 1186.59192861 -705.53393555 1192.75512695 C-711.02874203 1200.18132063 -716.31647749 1207.75265641 -721.625 1215.3125 C-723.60244884 1218.12621247 -725.5815907 1220.93872268 -727.5625 1223.75 C-728.05556641 1224.44996094 -728.54863281 1225.14992188 -729.05664062 1225.87109375 C-732.6832027 1231.00754743 -736.36617962 1236.10111515 -740.0625 1241.1875 C-744.5659242 1247.38787641 -748.94606705 1253.65964668 -753.25 1260 C-757.55828449 1266.3462122 -761.96836733 1272.59181683 -766.53393555 1278.75512695 C-771.50613618 1285.47502236 -776.30495517 1292.31457374 -781.10888672 1299.15527344 C-783.60843307 1302.71179382 -786.11705761 1306.26189773 -788.625 1309.8125 C-791.61658195 1314.04846723 -794.60678834 1318.28536618 -797.58984375 1322.52734375 C-802.68022361 1329.76090921 -807.80710977 1336.96460747 -813 1344.125 C-819.41765695 1352.97793716 -825.68341773 1361.9335378 -831.94042969 1370.90039062 C-835.99334689 1376.70369815 -840.06518057 1382.49313081 -844.16943359 1388.26025391 C-845.16627148 1389.6657251 -846.15856946 1391.07442418 -847.14697266 1392.48583984 C-848.62959588 1394.60204655 -850.12573242 1396.70806523 -851.625 1398.8125 C-852.29245239 1399.77506714 -852.29245239 1399.77506714 -852.97338867 1400.75708008 C-855.3258609 1404.02642712 -856.6523124 1405.61267001 -860.625 1406.3125 C-861.26824219 1405.36632813 -861.91148437 1404.42015625 -862.57421875 1403.4453125 C-868.12403539 1395.31183474 -873.78680999 1387.27457228 -879.57495117 1379.30908203 C-883.65330089 1373.6857124 -887.65391722 1368.01202942 -891.625 1362.3125 C-896.06826326 1355.93676987 -900.55878353 1349.60076891 -905.125 1343.3125 C-910.29753046 1336.18925854 -915.36125341 1328.99558009 -920.39453125 1321.7734375 C-924.25238441 1316.2475547 -928.1651714 1310.76569462 -932.125 1305.3125 C-937.29753046 1298.18925854 -942.36125341 1290.99558009 -947.39453125 1283.7734375 C-951.25238441 1278.2475547 -955.1651714 1272.76569462 -959.125 1267.3125 C-964.29753046 1260.18925854 -969.36125341 1252.99558009 -974.39453125 1245.7734375 C-978.25238441 1240.2475547 -982.1651714 1234.76569462 -986.125 1229.3125 C-991.29753046 1222.18925854 -996.36125341 1214.99558009 -1001.39453125 1207.7734375 C-1005.77239222 1201.50270981 -1010.23183088 1195.29579124 -1014.72607422 1189.1081543 C-1019.34405347 1182.73584717 -1023.86175718 1176.29611877 -1028.34179688 1169.82617188 C-1033.63493912 1162.21204155 -1039.13347323 1154.8009456 -1044.625 1147.3125 C-1044.955 1236.7425 -1045.285 1326.1725 -1045.625 1418.3125 C-1107.005 1418.3125 -1168.385 1418.3125 -1231.625 1418.3125 C-1231.625 1186.6525 -1231.625 954.9925 -1231.625 716.3125 C-1215.785 716.3125 -1199.945 716.3125 -1183.625 716.3125 C-1183.625 533.1625 -1183.625 350.0125 -1183.625 161.3125 C-910.19962687 161.3125 -910.19962687 161.3125 -882.3125 165.0625 C-881.04092041 165.23168945 -879.76934082 165.40087891 -878.45922852 165.57519531 C-791.65898926 177.43208915 -701.4805497 213.86547969 -646.625 285.3125 C-645.82964844 286.31410156 -645.03429688 287.31570313 -644.21484375 288.34765625 C-604.99678342 337.97253079 -584.57901764 398.98711687 -577.625 461.3125 C-577.50640625 462.37243164 -577.3878125 463.43236328 -577.265625 464.52441406 C-574.04939712 494.99242995 -574.0534187 526.88126856 -577.625 557.3125 C-577.75390625 558.4144873 -577.8828125 559.51647461 -578.015625 560.65185547 C-587.60659597 639.52205076 -620.67992356 717.3367093 -682.625 769.3125 C-683.1715625 769.77285645 -683.718125 770.23321289 -684.28125 770.70751953 C-741.32743857 818.55319728 -812.65252353 843.29136853 -885.8125 852.5 C-887.01350342 852.6549292 -888.21450684 852.8098584 -889.4519043 852.96948242 C-893.83819849 853.49010156 -898.22551065 853.92103598 -902.625 854.3125 C-903.57634827 854.39910889 -904.52769653 854.48571777 -905.50787354 854.57495117 C-933.43161115 856.99176654 -961.4797561 856.74594534 -989.48495752 856.90193707 C-996.38760914 856.94073875 -1003.29017583 856.99000793 -1010.19275475 857.03990483 C-1024.33677204 857.14192638 -1038.48084689 857.23158791 -1052.625 857.3125 C-1050.7043604 860.03831152 -1048.78280197 862.76347406 -1046.86108398 865.48852539 C-1046.32039024 866.25591286 -1045.7796965 867.02330032 -1045.2226181 867.81394196 C-1041.44144374 873.17446557 -1037.6055222 878.48851633 -1033.6875 883.75 C-1029.12559461 889.90857228 -1024.6011996 896.09135279 -1020.125 902.3125 C-1015.66491728 908.50913203 -1011.16250756 914.67234076 -1006.625 920.8125 C-1001.54294922 927.6895356 -996.51497203 934.60283083 -991.51953125 941.54296875 C-987.59107984 946.99333838 -983.61794732 952.40924016 -979.625 957.8125 C-974.54294922 964.6895356 -969.51497203 971.60283083 -964.51953125 978.54296875 C-960.59107984 983.99333838 -956.61794732 989.40924016 -952.625 994.8125 C-947.54294922 1001.6895356 -942.51497203 1008.60283083 -937.51953125 1015.54296875 C-933.59107984 1020.99333838 -929.61794732 1026.40924016 -925.625 1031.8125 C-920.54294922 1038.6895356 -915.51497203 1045.60283083 -910.51953125 1052.54296875 C-906.59107984 1057.99333838 -902.61794732 1063.40924016 -898.625 1068.8125 C-893.54887208 1075.68152078 -888.5263556 1082.58647747 -883.53710938 1089.51879883 C-878.86587293 1096.00021069 -874.13260152 1102.43485438 -869.38085938 1108.85742188 C-866.08636377 1113.31331428 -862.83294581 1117.79384499 -859.625 1122.3125 C-855.17934781 1118.15714227 -851.68840723 1113.54513563 -848.125 1108.625 C-847.51333984 1107.78775391 -846.90167969 1106.95050781 -846.27148438 1106.08789062 C-841.6635509 1099.77155751 -837.08961351 1093.43036983 -832.52148438 1087.08520508 C-828.01258071 1080.82821528 -823.43899683 1074.62040299 -818.85546875 1068.41796875 C-814.91084596 1063.07392324 -811.00530944 1057.70339219 -807.125 1052.3125 C-802.08492181 1045.31034758 -796.98286615 1038.35636744 -791.85546875 1031.41796875 C-787.91084596 1026.07392324 -784.00530944 1020.70339219 -780.125 1015.3125 C-775.08492181 1008.31034758 -769.98286615 1001.35636744 -764.85546875 994.41796875 C-760.91084596 989.07392324 -757.00530944 983.70339219 -753.125 978.3125 C-748.08492181 971.31034758 -742.98286615 964.35636744 -737.85546875 957.41796875 C-733.91084489 952.07392179 -730.00541885 946.70331451 -726.125 941.3125 C-718.78496467 931.11893537 -711.32045394 921.01848373 -703.85449219 910.91699219 C-697.02534581 901.67445339 -690.2329307 892.4086172 -683.51928711 883.08178711 C-679.01068587 876.8262479 -674.43819395 870.61931654 -669.85546875 864.41796875 C-665.91084596 859.07392324 -662.00530944 853.70339219 -658.125 848.3125 C-653.08492181 841.31034758 -647.98286615 834.35636744 -642.85546875 827.41796875 C-638.91084596 822.07392324 -635.00530944 816.70339219 -631.125 811.3125 C-626.08492181 804.31034758 -620.98286615 797.35636744 -615.85546875 790.41796875 C-611.91084596 785.07392324 -608.00530944 779.70339219 -604.125 774.3125 C-599.08860458 767.31546402 -593.99082468 760.36615285 -588.86645508 753.43334961 C-584.30604142 747.25605624 -579.79853656 741.04211016 -575.32617188 734.80078125 C-570.84645326 728.56605999 -566.23536174 722.45964898 -561.625 716.3125 C-546.775 716.3125 -531.925 716.3125 -516.625 716.3125 C-516.625 501.4825 -516.625 286.6525 -516.625 65.3125 C-455.575 65.3125 -394.525 65.3125 -331.625 65.3125 C-331.295 105.2425 -330.965 145.1725 -330.625 186.3125 C-326.665 180.0425 -322.705 173.7725 -318.625 167.3125 C-316.427127 164.10040261 -314.24458994 160.93771511 -311.9375 157.8125 C-311.39552979 157.0709668 -310.85355957 156.32943359 -310.29516602 155.56542969 C-305.93660303 149.64372899 -301.3918833 143.91156802 -296.625 138.3125 C-295.66895462 137.17083764 -294.71324601 136.02889322 -293.7578125 134.88671875 C-287.68634513 127.67161974 -281.40110134 120.87721516 -274.625 114.3125 C-271.95567734 111.66053879 -269.30734116 108.98999681 -266.6796875 106.296875 C-259.99550504 99.4753176 -253.13244383 93.23300448 -245.625 87.3125 C-244.59909302 86.45346143 -243.57576637 85.59133434 -242.5546875 84.7265625 C-224.30239153 69.43879439 -203.59978818 56.49827772 -182.625 45.3125 C-181.24876465 44.57507568 -181.24876465 44.57507568 -179.84472656 43.82275391 C-143.44097836 24.50534105 -104.05368447 11.9384966 -63.5 5.0625 C-62.7731601 4.9374408 -62.04632019 4.81238159 -61.29745483 4.68353271 C-40.92526237 1.21321623 -20.6522942 -0.07904454 0 0 Z M-333.625 194.3125 C-361.40275685 247.48653972 -377.8301161 304.00299229 -377.875 364.3125 C-377.87567474 365.13787262 -377.87634949 365.96324524 -377.87704468 366.81362915 C-377.80123757 425.80643773 -362.15627778 483.74410719 -333.625 535.3125 C-333.295 535.3125 -332.965 535.3125 -332.625 535.3125 C-332.625 422.7825 -332.625 310.2525 -332.625 194.3125 C-332.955 194.3125 -333.285 194.3125 -333.625 194.3125 Z M-1002.625 334.3125 C-1002.625 448.8225 -1002.625 563.3325 -1002.625 681.3125 C-944.29948242 682.13067067 -944.29948242 682.13067067 -887.625 673.3125 C-886.86429199 673.12461914 -886.10358398 672.93673828 -885.31982422 672.74316406 C-856.96695921 665.57670438 -830.81439268 651.40198527 -809.625 631.3125 C-808.18833984 629.97251953 -808.18833984 629.97251953 -806.72265625 628.60546875 C-785.92582278 608.8218834 -773.09286357 583.34479482 -766.3125 555.6875 C-766.06983398 554.69935303 -765.82716797 553.71120605 -765.57714844 552.69311523 C-762.22158453 538.19940477 -761.24110301 523.93930271 -761.3125 509.125 C-761.31465515 508.31512634 -761.3168103 507.50525269 -761.31903076 506.6708374 C-761.37294355 494.00881202 -761.9079026 481.72156256 -764.625 469.3125 C-764.81835938 468.40467773 -765.01171875 467.49685547 -765.2109375 466.56152344 C-770.78778923 441.1644718 -781.17743101 416.84519147 -798.625 397.3125 C-799.38941406 396.43980469 -800.15382813 395.56710937 -800.94140625 394.66796875 C-803.139674 392.18701344 -805.37082277 389.74265389 -807.625 387.3125 C-808.44871094 386.40757812 -808.44871094 386.40757812 -809.2890625 385.484375 C-818.25093638 376.03688234 -829.40930473 368.77002152 -840.625 362.3125 C-842.31496094 361.32636719 -842.31496094 361.32636719 -844.0390625 360.3203125 C-854.41694328 354.43120879 -865.37548825 350.22995637 -876.625 346.3125 C-877.33317871 346.06371094 -878.04135742 345.81492187 -878.77099609 345.55859375 C-888.0960571 342.35646341 -897.626103 340.40952656 -907.3125 338.625 C-908.93973999 338.32106323 -908.93973999 338.32106323 -910.59985352 338.01098633 C-941.27189157 332.65193135 -971.33422224 334.3125 -1002.625 334.3125 Z M-331.625 541.3125 C-331.625 613.5825 -331.625 685.8525 -331.625 760.3125 C-382.775 760.3125 -433.925 760.3125 -486.625 760.3125 C-486.625 825.6525 -486.625 890.9925 -486.625 958.3125 C-455.605 958.3125 -424.585 958.3125 -392.625 958.3125 C-392.64594727 971.94095215 -392.66689453 985.5694043 -392.68847656 999.61083984 C-392.7527158 1043.24784542 -392.79719288 1086.88485199 -392.82926132 1130.52189251 C-392.83425036 1137.30333211 -392.83943662 1144.08477156 -392.84472656 1150.86621094 C-392.8452496 1151.54102101 -392.84577263 1152.21583109 -392.84631152 1152.91108996 C-392.86333603 1174.75661583 -392.89336561 1196.60210013 -392.93018888 1218.44760085 C-392.9690554 1241.5473885 -392.99299802 1264.64715626 -393.00135398 1287.7469784 C-393.00683446 1301.57545043 -393.02412605 1315.40380305 -393.05666587 1329.23223831 C-393.07785704 1338.72296893 -393.08418962 1348.21363808 -393.07900551 1357.70439063 C-393.07645091 1363.1749222 -393.08028657 1368.64524555 -393.1018219 1374.11573982 C-393.121436 1379.13513855 -393.12217458 1384.15419105 -393.10859558 1389.17360647 C-393.1069199 1390.97876703 -393.11186736 1392.78395012 -393.12453273 1394.58906703 C-393.28248264 1418.51362318 -387.35580245 1439.28092131 -372.625 1458.3125 C-372.01140625 1459.11042969 -371.3978125 1459.90835938 -370.765625 1460.73046875 C-355.55350577 1479.09552722 -330.62771629 1492.33889242 -306.97753906 1495.10888672 C-276.52840411 1497.74427262 -247.79256345 1491.56994409 -223.8125 1472.01953125 C-221.35348591 1469.84165444 -218.98226407 1467.59958283 -216.625 1465.3125 C-215.94050781 1464.70148437 -215.25601563 1464.09046875 -214.55078125 1463.4609375 C-198.84131086 1448.95513969 -189.69455422 1426.32559167 -188.51038298 1405.27499329 C-188.33031845 1399.75236018 -188.36510239 1394.22821222 -188.38449097 1388.70341492 C-188.38361747 1386.84015924 -188.38186384 1384.9769038 -188.37931263 1383.11364967 C-188.37486344 1378.02368269 -188.38280922 1372.93380069 -188.39286876 1367.84384453 C-188.40153613 1362.34368092 -188.39858078 1356.84352179 -188.39706421 1351.34335327 C-188.39601743 1341.82390401 -188.40227234 1332.30448225 -188.41353989 1322.7850399 C-188.42982006 1309.02166497 -188.43500547 1295.25830328 -188.43751587 1281.49491975 C-188.44188902 1259.16270309 -188.45517058 1236.83049925 -188.47412109 1214.49829102 C-188.49250432 1192.8094897 -188.5066645 1171.12069231 -188.51513672 1149.43188477 C-188.5155313 1148.42820287 -188.5155313 1148.42820287 -188.51593385 1147.40424457 C-188.518571 1140.68435309 -188.52112261 1133.96446158 -188.52361157 1127.24457004 C-188.54447628 1070.93386679 -188.5814208 1014.62319117 -188.625 958.3125 C-156.615 958.3125 -124.605 958.3125 -91.625 958.3125 C-91.625 878.4525 -91.625 798.5925 -91.625 716.3125 C-99.545 714.0025 -107.465 711.6925 -115.625 709.3125 C-120.00634673 707.91681951 -124.35126118 706.51593585 -128.6875 705 C-129.75492432 704.62810547 -130.82234863 704.25621094 -131.92211914 703.87304688 C-142.16145215 700.23575739 -152.11048569 696.02518958 -161.9921875 691.51367188 C-164.4674119 690.38439665 -166.95143635 689.27702085 -169.4375 688.171875 C-193.71000825 677.20820581 -216.64175232 662.68438499 -237.625 646.3125 C-238.43710938 645.68214844 -239.24921875 645.05179688 -240.0859375 644.40234375 C-257.43603645 630.73001658 -274.06885535 615.95188988 -288.625 599.3125 C-289.335354 598.51126709 -289.335354 598.51126709 -290.06005859 597.69384766 C-304.89553668 580.94348402 -317.65366193 562.81588417 -329.12890625 543.62890625 C-329.86947266 542.48228516 -329.86947266 542.48228516 -330.625 541.3125 C-330.955 541.3125 -331.285 541.3125 -331.625 541.3125 Z M-6.32297599 627.75788116 C-17.31752153 627.83229377 -28.31209392 627.90253479 -39.30666447 627.97313499 C-56.41279843 628.0830795 -73.51889346 628.19817347 -90.625 628.3125 C-90.625 657.0225 -90.625 685.7325 -90.625 715.3125 C-77.30232909 718.69218121 -77.30232909 718.69218121 -63.875 721.375 C-62.9260083 721.53782471 -61.9770166 721.70064941 -60.99926758 721.8684082 C33.75521231 737.48375082 138.41343946 721.78792367 218.375 666.3125 C218.9834375 665.89403809 219.591875 665.47557617 220.21875 665.04443359 C229.21707052 658.83142296 237.8722664 652.185543 246.375 645.3125 C246.94863281 644.85053223 247.52226562 644.38856445 248.11328125 643.91259766 C249.5537513 642.73652301 250.96713664 641.52741823 252.375 640.3125 C252.375 639.9825 252.375 639.6525 252.375 639.3125 C206.97711891 630.43283473 162.35119104 627.10879188 116.10463119 627.21378136 C112.78171386 627.22057897 109.45879619 627.22361147 106.13587385 627.22690439 C68.64903016 627.26635451 31.1629176 627.50377257 -6.32297599 627.75788116 Z M-1182.625 717.3125 C-1182.625 762.8525 -1182.625 808.3925 -1182.625 855.3125 C-1141.045 855.3125 -1099.465 855.3125 -1056.625 855.3125 C-1060.67842028 849.23236958 -1064.77103561 843.29115631 -1069.125 837.4375 C-1070.36330601 835.76434124 -1071.60158653 834.09116362 -1072.83984375 832.41796875 C-1073.46745605 831.57153809 -1074.09506836 830.72510742 -1074.74169922 829.85302734 C-1077.7292817 825.82285061 -1080.70968155 821.78739495 -1083.6875 817.75 C-1084.55665039 816.57171631 -1084.55665039 816.57171631 -1085.44335938 815.36962891 C-1089.91205586 809.30193796 -1094.3283514 803.19770272 -1098.73071289 797.08178711 C-1102.6589888 791.63143063 -1106.63212036 786.21566826 -1110.625 780.8125 C-1115.70643923 773.93629195 -1120.73469023 767.0244472 -1125.72827148 760.08422852 C-1128.50778194 756.22676824 -1131.30331506 752.3824617 -1134.12890625 748.55859375 C-1134.71446289 747.76428955 -1135.30001953 746.96998535 -1135.90332031 746.15161133 C-1137.08857083 744.55619407 -1138.28451339 742.96866236 -1139.49121094 741.3894043 C-1142.95098929 736.81674008 -1145.84809263 732.31181943 -1148.3112793 727.12646484 C-1150.58388594 723.49100385 -1153.71697995 720.46285505 -1156.625 717.3125 C-1165.205 717.3125 -1173.785 717.3125 -1182.625 717.3125 Z M-515.625 717.3125 C-515.625 731.1725 -515.625 745.0325 -515.625 759.3125 C-506.385 759.3125 -497.145 759.3125 -487.625 759.3125 C-487.625 745.4525 -487.625 731.5925 -487.625 717.3125 C-496.865 717.3125 -506.105 717.3125 -515.625 717.3125 Z M589.375 747.3125 C575.44624361 777.31897122 575.44624361 777.31897122 561.625 807.375 C561.30587646 808.0711441 560.98675293 808.76728821 560.65795898 809.48452759 C560.34737549 810.16228241 560.03679199 810.84003723 559.71679688 811.53833008 C559.44863159 812.12326736 559.18046631 812.70820465 558.9041748 813.31086731 C554.9701111 821.94437929 551.1796375 830.61618571 547.375 839.3125 C574.765 839.3125 602.155 839.3125 630.375 839.3125 C630.375 808.9525 630.375 778.5925 630.375 747.3125 C616.845 747.3125 603.315 747.3125 589.375 747.3125 Z M447.375 757.3125 C447.375 784.3725 447.375 811.4325 447.375 839.3125 C462.225 839.3125 477.075 839.3125 492.375 839.3125 C482.66936886 813.43081696 471.12835331 790.01905753 455.375 767.3125 C454.66859375 766.27609375 453.9621875 765.2396875 453.234375 764.171875 C450.86571169 760.69782892 450.86571169 760.69782892 448.375 757.3125 C448.045 757.3125 447.715 757.3125 447.375 757.3125 Z M88.375 800.3125 C88.375 914.8225 88.375 1029.3325 88.375 1147.3125 C135.50996744 1148.14786242 135.50996744 1148.14786242 182.25 1143.625 C183.70925903 1143.37508301 183.70925903 1143.37508301 185.19799805 1143.12011719 C221.99717248 1136.45234315 256.34321219 1121.38545223 283.375 1095.3125 C284.28894531 1094.47332031 285.20289062 1093.63414062 286.14453125 1092.76953125 C316.39727368 1064.16143004 329.28479986 1021.12833167 330.5390625 980.515625 C331.16838586 950.70833142 326.35334566 921.28467257 313.375 894.3125 C313.05273438 893.63896484 312.73046875 892.96542969 312.3984375 892.27148438 C293.70251751 853.85364879 258.59019943 827.19806568 218.79467773 813.15893555 C176.15278471 798.67826704 133.76517916 800.3125 88.375 800.3125 Z M494.375 840.3125 C495.73940244 846.45231098 497.23954897 852.28733058 499.125 858.25 C504.75354133 876.58950366 508.76559724 895.31421671 511.375 914.3125 C513.42559324 911.23661014 514.9807233 908.07729765 516.54296875 904.7421875 C516.85494202 904.0806366 517.16691528 903.41908569 517.48834229 902.73748779 C518.51594451 900.55550085 519.53952517 898.37165987 520.5625 896.1875 C520.91249054 895.44183777 521.26248108 894.69617554 521.62307739 893.92791748 C526.74396907 883.01473253 531.81452562 872.07850783 536.81997681 861.11187744 C537.47941966 859.6671982 538.13987447 858.22298043 538.80136108 856.77923584 C539.72410883 854.76332573 540.64212318 852.74533266 541.55859375 850.7265625 C542.07993896 849.5813916 542.60128418 848.4362207 543.13842773 847.25634766 C544.51205864 844.19522046 544.51205864 844.19522046 545.375 840.3125 C528.545 840.3125 511.715 840.3125 494.375 840.3125 Z M510.375 919.3125 C495.65533013 951.1769593 480.96781832 983.05584851 466.38369751 1014.98260498 C461.24848301 1026.22379665 456.09870665 1037.45821868 450.9375 1048.6875 C450.58543488 1049.45350525 450.23336975 1050.2195105 449.87063599 1051.00872803 C447.01507067 1057.22134768 444.15861523 1063.43355797 441.30212402 1069.64575195 C438.80516688 1075.07614355 436.3086046 1080.50671647 433.8125 1085.9375 C433.46002197 1086.70433105 433.10754395 1087.47116211 432.74438477 1088.26123047 C427.29677684 1100.11404826 421.87065866 1111.97656203 416.45336914 1123.84326172 C410.72565026 1136.38726372 404.94911975 1148.90836612 399.16238403 1161.42523193 C393.72139003 1173.19703514 388.32628803 1184.98854668 382.97402954 1196.80093384 C378.08986431 1207.5775431 373.14868442 1218.32701488 368.18304443 1229.0663147 C360.42563482 1245.82690079 360.42563482 1245.82690079 352.75 1262.625 C352.38986816 1263.41237549 352.02973633 1264.19975098 351.65869141 1265.01098633 C349.95855687 1268.52164913 349.95855687 1268.52164913 349.375 1272.3125 C355.6299495 1270.69084643 360.79816942 1267.2851231 366.25 1263.9375 C367.26924561 1263.31407715 368.28849121 1262.6906543 369.33862305 1262.04833984 C378.09111811 1256.62288103 386.30924837 1250.70111817 394.375 1244.3125 C395.303125 1243.59578125 396.23125 1242.8790625 397.1875 1242.140625 C402.53020628 1237.96663572 407.56181639 1233.50438208 412.5390625 1228.90234375 C414.74869372 1226.88445739 416.98493061 1224.92574779 419.25390625 1222.9765625 C423.30238844 1219.44248355 427.02701524 1215.68119898 430.6875 1211.75 C431.33702637 1211.05310059 431.98655273 1210.35620117 432.65576172 1209.63818359 C438.09839385 1203.73137825 443.17037397 1197.62377616 447.97412109 1191.18896484 C448.94745583 1189.88519162 449.92744685 1188.58637186 450.91259766 1187.29150391 C462.98350268 1171.39869581 472.9054858 1154.27539117 481.45263672 1136.25195312 C482.06322846 1134.96806196 482.68195282 1133.68800426 483.30908203 1132.41210938 C497.12128032 1104.23094201 505.20557168 1072.97639509 510.125 1042.125 C510.32399902 1040.87968506 510.52299805 1039.63437012 510.72802734 1038.35131836 C513.72967399 1018.46186659 514.70245596 998.76287783 514.63574219 978.65380859 C514.62501321 974.81722213 514.6357093 970.98110372 514.6484375 967.14453125 C514.6554661 955.63465004 514.48853451 944.18997962 513.484375 932.71875 C513.40689026 931.81644653 513.32940552 930.91414307 513.24957275 929.98449707 C512.84367962 925.92477472 512.37080819 922.92536282 510.375 919.3125 Z M-578.625 959.3125 C-578.64703637 1016.64808251 -578.66550605 1073.98366107 -578.67606533 1131.31924659 C-578.67731267 1138.08482 -578.67860923 1144.8503934 -578.67993164 1151.6159668 C-578.6800624 1152.28922554 -578.68019316 1152.96248428 -578.68032788 1153.6561448 C-578.68458983 1175.48153378 -578.6921016 1197.30692017 -578.70129722 1219.13230759 C-578.71099646 1242.19487734 -578.7169957 1265.25744585 -578.71908849 1288.32001776 C-578.72046213 1302.1377246 -578.72480413 1315.95542401 -578.73291647 1329.77312856 C-578.73819334 1339.24227527 -578.73980214 1348.71141813 -578.73850138 1358.1805662 C-578.73785948 1363.64763286 -578.73885888 1369.11468651 -578.74420547 1374.58175087 C-578.7490629 1379.58505081 -578.74932315 1384.58832898 -578.74589889 1389.59162991 C-578.74547552 1391.40331761 -578.74675148 1393.21500665 -578.74988318 1395.02669168 C-578.7538895 1397.48706484 -578.75173693 1399.94735913 -578.74804783 1402.40773106 C-578.75067484 1403.11290175 -578.75330186 1403.81807245 -578.75600848 1404.54461196 C-578.74099189 1408.96949642 -578.26109426 1412.85984015 -577.625 1417.3125 C-547.925 1417.3125 -518.225 1417.3125 -487.625 1417.3125 C-487.625 1266.1725 -487.625 1115.0325 -487.625 959.3125 C-517.655 959.3125 -547.685 959.3125 -578.625 959.3125 Z M-90.625 959.3125 C-90.625 1078.4425 -90.625 1197.5725 -90.625 1320.3125 C-61.915 1320.3125 -33.205 1320.3125 -3.625 1320.3125 C-3.625 1201.1825 -3.625 1082.0525 -3.625 959.3125 C-32.335 959.3125 -61.045 959.3125 -90.625 959.3125 Z M632.375 1071.3125 C632.01486816 1072.15804443 631.65473633 1073.00358887 631.28369141 1073.87475586 C623.80517407 1091.41726101 616.25232643 1108.92401131 608.5625 1126.375 C602.0390954 1141.18013219 595.61441756 1156.0243072 589.26895142 1170.90655518 C584.98503045 1180.95224028 580.65905921 1190.97679705 576.2421875 1200.96484375 C575.82181213 1201.91646393 575.40143677 1202.86808411 574.96832275 1203.84854126 C572.93968857 1208.43830026 570.90449282 1213.02498436 568.859375 1217.60742188 C568.13263698 1219.24731806 567.4060652 1220.88728793 566.6796875 1222.52734375 C566.34315155 1223.27523666 566.0066156 1224.02312958 565.65988159 1224.79368591 C564.33408429 1227.79861935 563.375 1229.99007231 563.375 1233.3125 C609.575 1233.3125 655.775 1233.3125 703.375 1233.3125 C698.1488294 1220.54850358 698.1488294 1220.54850358 692.75390625 1207.859375 C692.45255768 1207.16365891 692.15120911 1206.46794281 691.84072876 1205.75114441 C690.874386 1203.52098611 689.90594556 1201.29174584 688.9375 1199.0625 C688.23787204 1197.44872064 687.53841333 1195.8348679 686.83911133 1194.22094727 C685.39567629 1190.89001425 683.95153452 1187.55938908 682.50683594 1184.22900391 C679.18588694 1176.57200564 675.87439244 1168.91091868 672.5625 1161.25 C671.90804361 1159.73624534 671.25358395 1158.2224921 670.59912109 1156.70874023 C669.5914805 1154.37809522 668.58386258 1152.04744042 667.57632446 1149.7167511 C665.71821779 1145.41862548 663.85950586 1141.12076267 662 1136.82324219 C659.93244966 1132.04486591 657.86586774 1127.26607181 655.79992676 1122.48699951 C654.97949582 1120.58945452 654.15877959 1118.69203284 653.33776855 1116.79473877 C649.44924107 1107.80749683 645.56643017 1098.81916754 641.796875 1089.78125 C641.53389114 1089.15212204 641.27090729 1088.52299408 640.99995422 1087.87480164 C639.82229242 1085.05541351 638.65219991 1082.23332365 637.49487305 1079.40551758 C637.10340088 1078.46345459 636.71192871 1077.5213916 636.30859375 1076.55078125 C635.8144397 1075.344823 635.8144397 1075.344823 635.31030273 1074.11450195 C634.5059702 1072.13305081 634.5059702 1072.13305081 632.375 1071.3125 Z " fill="#30C1E5" transform="translate(2365.625,1413.6875)"/>
<path d="M0 0 C1.57255554 0.00373123 1.57255554 0.00373123 3.17687988 0.00753784 C90.85245914 0.32797735 186.89487423 31.72965263 252.375 91.3125 C251.10924249 93.95648662 249.73824713 96.36117577 248.046875 98.75390625 C247.58418213 99.4099585 247.12148926 100.06601074 246.64477539 100.74194336 C246.14324951 101.44585205 245.64172363 102.14976074 245.125 102.875 C244.59704834 103.61951416 244.06909668 104.36402832 243.52514648 105.13110352 C238.97410438 111.52412318 234.32776388 117.84512811 229.65917969 124.15258789 C225.69323718 129.51248413 221.76917367 134.90026869 217.875 140.3125 C212.83506391 147.31475341 207.73286473 154.26863449 202.60546875 161.20703125 C198.66084596 166.55107676 194.75530944 171.92160781 190.875 177.3125 C185.84014839 184.30739116 180.74455416 191.25504316 175.62084961 198.18505859 C171.51884819 203.74024567 167.46796512 209.33025196 163.4375 214.9375 C159.20325172 220.82603861 154.92128283 226.65857735 150.375 232.3125 C146.75720417 230.74394516 144.14962716 228.51943876 141.1875 225.9375 C98.30431504 189.62092786 42.3042517 170.77663874 -13.71679688 174.51904297 C-50.15582798 177.80850499 -84.63176212 192.27924105 -113.625 214.3125 C-114.55828125 215.00214844 -115.4915625 215.69179687 -116.453125 216.40234375 C-130.42894734 227.22717547 -143.73056023 240.65407071 -153.625 255.3125 C-154.08922363 255.99183594 -154.55344727 256.67117188 -155.03173828 257.37109375 C-171.09657164 281.12137679 -181.86366074 307.01139741 -186.625 335.3125 C-186.74214355 336.0019873 -186.85928711 336.69147461 -186.97998047 337.40185547 C-194.560099 384.26793748 -181.61978394 434.00762047 -154.4375 472.625 C-149.89860145 478.90291767 -144.94503029 484.68135683 -139.625 490.3125 C-138.49537767 491.64191948 -137.37020688 492.97513718 -136.25 494.3125 C-104.93013117 529.98433238 -55.85257027 549.25452157 -9.625 554.3125 C-8.69429687 554.42335938 -7.76359375 554.53421875 -6.8046875 554.6484375 C37.59011788 559.02872496 88.7048829 552.11039271 124.375 523.3125 C145.26665377 505.85081924 158.17315089 483.1049265 161.0625 455.875 C161.165625 454.699375 161.26875 453.52375 161.375 452.3125 C161.705 451.6525 162.035 450.9925 162.375 450.3125 C109.905 450.3125 57.435 450.3125 3.375 450.3125 C3.375 404.7725 3.375 359.2325 3.375 312.3125 C121.185 312.3125 238.995 312.3125 360.375 312.3125 C363.93729004 336.06110027 363.93729004 336.06110027 364.54296875 342.93359375 C364.66202827 344.27676918 364.66202827 344.27676918 364.78349304 345.64707947 C365.71701114 357.20830392 365.72538028 368.78311635 365.6875 380.375 C365.68476578 382.11872391 365.68476578 382.11872391 365.68197632 383.89767456 C365.63542553 401.56225963 365.09646709 418.83189546 362.375 436.3125 C362.12556641 437.99811035 362.12556641 437.99811035 361.87109375 439.71777344 C350.47383628 515.21405119 314.95428287 583.97454752 259.375 636.3125 C258.385 636.9725 257.395 637.6325 256.375 638.3125 C262.12136818 640.31942447 267.90401276 642.0341037 273.78320312 643.60644531 C321.77217161 656.50556476 371.53821358 678.60276216 408.07421875 713.15234375 C410.0609002 715.01759815 412.08638254 716.80165585 414.1484375 718.58203125 C418.36182165 722.25595341 422.36235801 726.10850139 426.3125 730.0625 C427.00617676 730.75553223 427.69985352 731.44856445 428.41455078 732.16259766 C433.18475252 736.98185032 437.59264597 741.93041821 441.7734375 747.2734375 C443.36061294 749.37765511 443.36061294 749.37765511 445.375 751.3125 C445.87 451.3425 445.87 451.3425 446.375 145.3125 C507.425 145.3125 568.475 145.3125 631.375 145.3125 C631.375 343.6425 631.375 541.9725 631.375 746.3125 C646.555 746.3125 661.735 746.3125 677.375 746.3125 C685.26467533 762.99951243 693.14043909 779.68375582 700.75 796.5 C706.18156676 808.50143276 711.66160163 820.47918357 717.1875 832.4375 C717.75058365 833.65634384 717.75058365 833.65634384 718.32504272 834.89981079 C721.00698791 840.70467602 723.69076143 846.50869497 726.375 852.3125 C729.43876752 858.93691466 732.50168361 865.56172118 735.5625 872.1875 C735.93864441 873.00166382 736.31478882 873.81582764 736.70233154 874.65466309 C742.0852075 886.30960115 747.41821125 897.9861631 752.71517944 909.68035889 C758.43688751 922.30705869 764.26292444 934.88428169 770.10324097 947.45648193 C775.41151839 958.88576715 780.67811941 970.33214246 785.875 981.8125 C791.45379481 994.1355871 797.11497831 1006.41886791 802.8125 1018.6875 C808.72552468 1031.42036171 814.61190129 1044.16438683 820.4375 1056.9375 C826.0505979 1069.24441635 831.69984294 1081.53407586 837.375 1093.8125 C843.06945003 1106.13326052 848.74011964 1118.46438061 854.375 1130.8125 C859.99084341 1143.11809954 865.63943034 1155.40817709 871.3125 1167.6875 C877.20023614 1180.4316746 883.07850769 1193.18008223 888.9375 1205.9375 C889.28659424 1206.69756348 889.63568848 1207.45762695 889.99536133 1208.24072266 C892.80655921 1214.3616176 895.61686913 1220.48292012 898.42712402 1226.60424805 C900.88849272 1231.96552648 903.35031055 1237.32659845 905.8125 1242.6875 C906.16093964 1243.44625427 906.50937927 1244.20500854 906.86837769 1244.98675537 C910.87548557 1253.71168016 914.88986014 1262.43318641 918.91796875 1271.1484375 C919.29591583 1271.96620667 919.67386292 1272.78397583 920.06326294 1273.62652588 C920.82708677 1275.2791751 921.59091123 1276.93182402 922.35473633 1278.58447266 C922.73267334 1279.40222168 923.11061035 1280.2199707 923.5 1281.0625 C923.87809814 1281.88057129 924.25619629 1282.69864258 924.64575195 1283.54150391 C930.04810443 1295.23369693 935.40073863 1306.94730964 940.71490479 1318.67980957 C946.43671216 1331.30668868 952.26283838 1343.88409644 958.10324097 1356.45648193 C963.7119234 1368.53257104 969.27056345 1380.62936313 974.75637817 1392.76174927 C978.63204346 1401.33125946 982.55650836 1409.8764687 986.52734375 1418.40234375 C986.9662796 1419.34554474 987.40521545 1420.28874573 987.85745239 1421.26052856 C990.02746139 1425.92219028 992.20186327 1430.58172799 994.3828125 1435.23828125 C995.17070847 1436.92832223 995.95847541 1438.61842337 996.74609375 1440.30859375 C997.11403549 1441.09024399 997.48197723 1441.87189423 997.86106873 1442.67723083 C1000.375 1448.08567142 1000.375 1448.08567142 1000.375 1450.3125 C933.385 1450.3125 866.395 1450.3125 797.375 1450.3125 C794.19078784 1443.94407568 791.14138447 1437.66897707 788.37109375 1431.1328125 C788.00709976 1430.28113495 787.64310577 1429.4294574 787.26808167 1428.55197144 C786.11333966 1425.84836619 784.96278875 1423.14300249 783.8125 1420.4375 C783.06994915 1418.69649185 782.32711195 1416.95560581 781.58398438 1415.21484375 C779.17988401 1409.58120083 776.77748521 1403.9468319 774.375 1398.3125 C770.415 1389.0725 766.455 1379.8325 762.375 1370.3125 C676.905 1369.9825 591.435 1369.6525 503.375 1369.3125 C503.045 1370.9625 502.715 1372.6125 502.375 1374.3125 C501.86892834 1375.67607743 501.31726564 1377.02351868 500.72363281 1378.35131836 C500.38483597 1379.11600937 500.04603912 1379.88070038 499.69697571 1380.66856384 C499.14314461 1381.8980349 499.14314461 1381.8980349 498.578125 1383.15234375 C498.19258957 1384.01948502 497.80705414 1384.88662628 497.40983582 1385.78004456 C496.15274108 1388.60540014 494.8888708 1391.42766996 493.625 1394.25 C491.88973388 1398.14355631 490.15779362 1402.03858917 488.42578125 1405.93359375 C487.99447403 1406.90223358 487.56316681 1407.87087341 487.11878967 1408.86886597 C484.4778533 1414.80639788 481.86584109 1420.75531897 479.29296875 1426.72265625 C478.98986786 1427.42559311 478.68676697 1428.12852997 478.3744812 1428.85276794 C476.98162693 1432.08727549 475.59390352 1435.32392669 474.20996094 1438.56225586 C473.72688477 1439.68639893 473.24380859 1440.81054199 472.74609375 1441.96875 C472.33286865 1442.93619141 471.91964355 1443.90363281 471.49389648 1444.90039062 C470.375 1447.3125 470.375 1447.3125 468.375 1450.3125 C465.66330609 1450.60684334 463.17976542 1450.70366317 460.46578979 1450.67326355 C459.63920337 1450.67582682 458.81261694 1450.6783901 457.96098244 1450.68103105 C455.17545355 1450.68599487 452.39045989 1450.66943349 449.60498047 1450.65307617 C447.61456312 1450.65223046 445.62414483 1450.65270395 443.63372803 1450.65440369 C438.21658254 1450.65526725 432.79963483 1450.63758321 427.38253546 1450.61668181 C421.72639808 1450.59797499 416.07025656 1450.59616932 410.41409302 1450.59260559 C399.69724401 1450.58326746 388.98048641 1450.5586298 378.26367772 1450.52855712 C366.06556913 1450.49506805 353.86745627 1450.47854094 341.66931319 1450.46347082 C316.57115805 1450.43208176 291.47308414 1450.37928697 266.375 1450.3125 C266.83440842 1448.89982559 267.29687324 1447.48814497 267.76057434 1446.07687378 C268.01777158 1445.29063566 268.27496881 1444.50439754 268.53995991 1443.69433403 C269.86640682 1439.91083139 271.55027614 1436.31715792 273.26171875 1432.6953125 C273.63549652 1431.89361633 274.00927429 1431.09192017 274.39437866 1430.26593018 C275.19587269 1428.54810413 275.99953966 1426.83129051 276.8052063 1425.11541748 C278.52593756 1421.45042153 280.23589613 1417.78043425 281.94633484 1414.11062622 C282.82254636 1412.23073051 283.69926777 1410.35107238 284.57649231 1408.47164917 C288.57627396 1399.89781877 292.51527472 1391.29701984 296.4375 1382.6875 C301.68954074 1371.16772642 306.97545572 1359.66415946 312.28863525 1348.17245483 C318.4145437 1334.92232608 324.51758415 1321.66229778 330.5625 1308.375 C331.01014206 1307.39246246 331.01014206 1307.39246246 331.46682739 1306.39007568 C335.86268471 1296.73755228 340.14535591 1287.03884278 344.375 1277.3125 C343.80394531 1277.59859131 343.23289062 1277.88468262 342.64453125 1278.17944336 C233.66790715 1332.41870311 116.08061599 1321.3125 -3.625 1321.3125 C-3.625 1201.8525 -3.625 1082.3925 -3.625 959.3125 C-32.665 959.3125 -61.705 959.3125 -91.625 959.3125 C-91.625 879.1225 -91.625 798.9325 -91.625 716.3125 C-97.235 714.9925 -102.845 713.6725 -108.625 712.3125 C-114.03286803 710.67391075 -119.4003268 708.99616496 -124.75 707.1875 C-125.45811829 706.95017151 -126.16623657 706.71284302 -126.89581299 706.46832275 C-138.91846761 702.42488035 -150.59801912 697.83542359 -162.10498047 692.48144531 C-164.52990778 691.35660982 -166.96735326 690.26504118 -169.41015625 689.1796875 C-193.69639433 678.23045364 -216.63720268 663.68793478 -237.625 647.3125 C-238.43710938 646.68214844 -239.24921875 646.05179688 -240.0859375 645.40234375 C-257.82550455 631.42310564 -274.67358722 616.25743448 -289.625 599.3125 C-290.11419922 598.76271484 -290.60339844 598.21292969 -291.10742188 597.64648438 C-302.45384419 584.85409407 -313.30367258 571.22185882 -322.15126324 556.55527687 C-323.63632022 554.18610933 -323.63632022 554.18610933 -325.81050587 551.79938316 C-335.5400608 539.03503239 -333.91817876 523.59204889 -333.81618106 508.31521606 C-333.79774142 504.07775068 -333.83141514 499.84063386 -333.858078 495.60325623 C-333.90179011 487.31954872 -333.89707957 479.03656065 -333.87438925 470.75279547 C-333.85674425 464.01505791 -333.85643477 457.27752447 -333.86828041 450.53977585 C-333.86994823 449.57811541 -333.87161605 448.61645498 -333.87333441 447.62565332 C-333.87678451 445.6715807 -333.88026814 443.71750814 -333.88378493 441.76343565 C-333.91457001 423.46956623 -333.88957013 405.17609694 -333.84579752 386.88227527 C-333.8096887 371.21456574 -333.82367841 355.547545 -333.8737793 339.87988281 C-333.93205785 321.65129487 -333.95734954 303.42312803 -333.93191797 285.19445074 C-333.92930289 283.24725245 -333.92673642 281.3000541 -333.92421913 279.35285568 C-333.92297136 278.39499812 -333.9217236 277.43714056 -333.92043802 276.45025701 C-333.91397965 269.7283227 -333.93097497 263.00668686 -333.95738792 256.28480911 C-333.98905876 248.08155968 -333.98480816 239.87924628 -333.93563255 231.67606832 C-333.91148372 227.49721055 -333.90276989 223.31995208 -333.93817902 219.14113808 C-334.07421934 201.75088451 -334.06794121 187.38824622 -322.625 173.3125 C-321.39149659 171.47552357 -320.17014253 169.63018695 -318.97265625 167.76953125 C-317.88555132 166.2157635 -316.79060833 164.6674472 -315.6875 163.125 C-314.79720093 161.86876831 -314.79720093 161.86876831 -313.88891602 160.5871582 C-302.10012231 144.06955317 -289.21332396 128.43851791 -274.625 114.3125 C-271.95566433 111.66055413 -269.3073349 108.99000099 -266.6796875 106.296875 C-259.99550504 99.4753176 -253.13244383 93.23300448 -245.625 87.3125 C-244.59909302 86.45346143 -243.57576637 85.59133434 -242.5546875 84.7265625 C-224.30239153 69.43879439 -203.59978818 56.49827772 -182.625 45.3125 C-181.70750977 44.82088379 -180.79001953 44.32926758 -179.84472656 43.82275391 C-143.44097836 24.50534105 -104.05368447 11.9384966 -63.5 5.0625 C-62.7731601 4.9374408 -62.04632019 4.81238159 -61.29745483 4.68353271 C-40.92526237 1.21321623 -20.6522942 -0.07904454 0 0 Z M-6.32297599 627.75788116 C-17.31752153 627.83229377 -28.31209392 627.90253479 -39.30666447 627.97313499 C-56.41279843 628.0830795 -73.51889346 628.19817347 -90.625 628.3125 C-90.625 657.0225 -90.625 685.7325 -90.625 715.3125 C-77.30232909 718.69218121 -77.30232909 718.69218121 -63.875 721.375 C-62.9260083 721.53782471 -61.9770166 721.70064941 -60.99926758 721.8684082 C33.75521231 737.48375082 138.41343946 721.78792367 218.375 666.3125 C218.9834375 665.89403809 219.591875 665.47557617 220.21875 665.04443359 C229.21707052 658.83142296 237.8722664 652.185543 246.375 645.3125 C246.94863281 644.85053223 247.52226562 644.38856445 248.11328125 643.91259766 C249.5537513 642.73652301 250.96713664 641.52741823 252.375 640.3125 C252.375 639.9825 252.375 639.6525 252.375 639.3125 C206.97711891 630.43283473 162.35119104 627.10879188 116.10463119 627.21378136 C112.78171386 627.22057897 109.45879619 627.22361147 106.13587385 627.22690439 C68.64903016 627.26635451 31.1629176 627.50377257 -6.32297599 627.75788116 Z M589.375 747.3125 C575.44624361 777.31897122 575.44624361 777.31897122 561.625 807.375 C561.30587646 808.0711441 560.98675293 808.76728821 560.65795898 809.48452759 C560.34737549 810.16228241 560.03679199 810.84003723 559.71679688 811.53833008 C559.44863159 812.12326736 559.18046631 812.70820465 558.9041748 813.31086731 C554.9701111 821.94437929 551.1796375 830.61618571 547.375 839.3125 C574.765 839.3125 602.155 839.3125 630.375 839.3125 C630.375 808.9525 630.375 778.5925 630.375 747.3125 C616.845 747.3125 603.315 747.3125 589.375 747.3125 Z M447.375 757.3125 C447.375 784.3725 447.375 811.4325 447.375 839.3125 C462.225 839.3125 477.075 839.3125 492.375 839.3125 C482.66936886 813.43081696 471.12835331 790.01905753 455.375 767.3125 C454.66859375 766.27609375 453.9621875 765.2396875 453.234375 764.171875 C450.86571169 760.69782892 450.86571169 760.69782892 448.375 757.3125 C448.045 757.3125 447.715 757.3125 447.375 757.3125 Z M88.375 800.3125 C88.375 914.8225 88.375 1029.3325 88.375 1147.3125 C135.50996744 1148.14786242 135.50996744 1148.14786242 182.25 1143.625 C183.70925903 1143.37508301 183.70925903 1143.37508301 185.19799805 1143.12011719 C221.99717248 1136.45234315 256.34321219 1121.38545223 283.375 1095.3125 C284.28894531 1094.47332031 285.20289062 1093.63414062 286.14453125 1092.76953125 C316.39727368 1064.16143004 329.28479986 1021.12833167 330.5390625 980.515625 C331.16838586 950.70833142 326.35334566 921.28467257 313.375 894.3125 C313.05273438 893.63896484 312.73046875 892.96542969 312.3984375 892.27148438 C293.70251751 853.85364879 258.59019943 827.19806568 218.79467773 813.15893555 C176.15278471 798.67826704 133.76517916 800.3125 88.375 800.3125 Z M494.375 840.3125 C495.73940244 846.45231098 497.23954897 852.28733058 499.125 858.25 C504.75354133 876.58950366 508.76559724 895.31421671 511.375 914.3125 C513.42559324 911.23661014 514.9807233 908.07729765 516.54296875 904.7421875 C516.85494202 904.0806366 517.16691528 903.41908569 517.48834229 902.73748779 C518.51594451 900.55550085 519.53952517 898.37165987 520.5625 896.1875 C520.91249054 895.44183777 521.26248108 894.69617554 521.62307739 893.92791748 C526.74396907 883.01473253 531.81452562 872.07850783 536.81997681 861.11187744 C537.47941966 859.6671982 538.13987447 858.22298043 538.80136108 856.77923584 C539.72410883 854.76332573 540.64212318 852.74533266 541.55859375 850.7265625 C542.07993896 849.5813916 542.60128418 848.4362207 543.13842773 847.25634766 C544.51205864 844.19522046 544.51205864 844.19522046 545.375 840.3125 C528.545 840.3125 511.715 840.3125 494.375 840.3125 Z M510.375 919.3125 C495.65533013 951.1769593 480.96781832 983.05584851 466.38369751 1014.98260498 C461.24848301 1026.22379665 456.09870665 1037.45821868 450.9375 1048.6875 C450.58543488 1049.45350525 450.23336975 1050.2195105 449.87063599 1051.00872803 C447.01507067 1057.22134768 444.15861523 1063.43355797 441.30212402 1069.64575195 C438.80516688 1075.07614355 436.3086046 1080.50671647 433.8125 1085.9375 C433.46002197 1086.70433105 433.10754395 1087.47116211 432.74438477 1088.26123047 C427.29677684 1100.11404826 421.87065866 1111.97656203 416.45336914 1123.84326172 C410.72565026 1136.38726372 404.94911975 1148.90836612 399.16238403 1161.42523193 C393.72139003 1173.19703514 388.32628803 1184.98854668 382.97402954 1196.80093384 C378.08986431 1207.5775431 373.14868442 1218.32701488 368.18304443 1229.0663147 C360.42563482 1245.82690079 360.42563482 1245.82690079 352.75 1262.625 C352.38986816 1263.41237549 352.02973633 1264.19975098 351.65869141 1265.01098633 C349.95855687 1268.52164913 349.95855687 1268.52164913 349.375 1272.3125 C355.6299495 1270.69084643 360.79816942 1267.2851231 366.25 1263.9375 C367.26924561 1263.31407715 368.28849121 1262.6906543 369.33862305 1262.04833984 C378.09111811 1256.62288103 386.30924837 1250.70111817 394.375 1244.3125 C395.303125 1243.59578125 396.23125 1242.8790625 397.1875 1242.140625 C402.53020628 1237.96663572 407.56181639 1233.50438208 412.5390625 1228.90234375 C414.74869372 1226.88445739 416.98493061 1224.92574779 419.25390625 1222.9765625 C423.30238844 1219.44248355 427.02701524 1215.68119898 430.6875 1211.75 C431.33702637 1211.05310059 431.98655273 1210.35620117 432.65576172 1209.63818359 C438.09839385 1203.73137825 443.17037397 1197.62377616 447.97412109 1191.18896484 C448.94745583 1189.88519162 449.92744685 1188.58637186 450.91259766 1187.29150391 C462.98350268 1171.39869581 472.9054858 1154.27539117 481.45263672 1136.25195312 C482.06322846 1134.96806196 482.68195282 1133.68800426 483.30908203 1132.41210938 C497.12128032 1104.23094201 505.20557168 1072.97639509 510.125 1042.125 C510.32399902 1040.87968506 510.52299805 1039.63437012 510.72802734 1038.35131836 C513.72967399 1018.46186659 514.70245596 998.76287783 514.63574219 978.65380859 C514.62501321 974.81722213 514.6357093 970.98110372 514.6484375 967.14453125 C514.6554661 955.63465004 514.48853451 944.18997962 513.484375 932.71875 C513.40689026 931.81644653 513.32940552 930.91414307 513.24957275 929.98449707 C512.84367962 925.92477472 512.37080819 922.92536282 510.375 919.3125 Z M632.375 1071.3125 C632.01486816 1072.15804443 631.65473633 1073.00358887 631.28369141 1073.87475586 C623.80517407 1091.41726101 616.25232643 1108.92401131 608.5625 1126.375 C602.0390954 1141.18013219 595.61441756 1156.0243072 589.26895142 1170.90655518 C584.98503045 1180.95224028 580.65905921 1190.97679705 576.2421875 1200.96484375 C575.82181213 1201.91646393 575.40143677 1202.86808411 574.96832275 1203.84854126 C572.93968857 1208.43830026 570.90449282 1213.02498436 568.859375 1217.60742188 C568.13263698 1219.24731806 567.4060652 1220.88728793 566.6796875 1222.52734375 C566.34315155 1223.27523666 566.0066156 1224.02312958 565.65988159 1224.79368591 C564.33408429 1227.79861935 563.375 1229.99007231 563.375 1233.3125 C609.575 1233.3125 655.775 1233.3125 703.375 1233.3125 C698.1488294 1220.54850358 698.1488294 1220.54850358 692.75390625 1207.859375 C692.45255768 1207.16365891 692.15120911 1206.46794281 691.84072876 1205.75114441 C690.874386 1203.52098611 689.90594556 1201.29174584 688.9375 1199.0625 C688.23787204 1197.44872064 687.53841333 1195.8348679 686.83911133 1194.22094727 C685.39567629 1190.89001425 683.95153452 1187.55938908 682.50683594 1184.22900391 C679.18588694 1176.57200564 675.87439244 1168.91091868 672.5625 1161.25 C671.90804361 1159.73624534 671.25358395 1158.2224921 670.59912109 1156.70874023 C669.5914805 1154.37809522 668.58386258 1152.04744042 667.57632446 1149.7167511 C665.71821779 1145.41862548 663.85950586 1141.12076267 662 1136.82324219 C659.93244966 1132.04486591 657.86586774 1127.26607181 655.79992676 1122.48699951 C654.97949582 1120.58945452 654.15877959 1118.69203284 653.33776855 1116.79473877 C649.44924107 1107.80749683 645.56643017 1098.81916754 641.796875 1089.78125 C641.53389114 1089.15212204 641.27090729 1088.52299408 640.99995422 1087.87480164 C639.82229242 1085.05541351 638.65219991 1082.23332365 637.49487305 1079.40551758 C637.10340088 1078.46345459 636.71192871 1077.5213916 636.30859375 1076.55078125 C635.8144397 1075.344823 635.8144397 1075.344823 635.31030273 1074.11450195 C634.5059702 1072.13305081 634.5059702 1072.13305081 632.375 1071.3125 Z " fill="#2DBEE6" transform="translate(2365.625,1413.6875)"/>
<path d="M0 0 C32.39106032 -0.04579942 64.78211129 -0.08110866 97.17319651 -0.10213066 C101.01259981 -0.10463154 104.85200305 -0.10722024 108.69140625 -0.10986328 C109.45564017 -0.1103879 110.21987409 -0.11091252 111.00726661 -0.11145304 C123.32002681 -0.12011387 135.63276799 -0.13585953 147.94551697 -0.15430559 C160.61535003 -0.1731258 173.28517325 -0.18414209 185.95501971 -0.18817699 C193.74902415 -0.19089716 201.54297482 -0.19943135 209.33696267 -0.21583293 C215.3517897 -0.22783202 221.3665722 -0.22888128 227.38141251 -0.22621536 C229.8207418 -0.22675788 232.26007346 -0.23063065 234.69939041 -0.23841095 C256.97431453 -0.30586892 279.22070306 0.77930177 301.3125 3.75 C302.58407959 3.91918945 303.85565918 4.08837891 305.16577148 4.26269531 C391.96601074 16.11958915 482.1444503 52.55297969 537 124 C537.79535156 125.00160156 538.59070312 126.00320313 539.41015625 127.03515625 C578.62821658 176.66003079 599.04598236 237.67461687 606 300 C606.11859375 301.05993164 606.2371875 302.11986328 606.359375 303.21191406 C609.57560288 333.67992995 609.5715813 365.56876856 606 396 C605.80664062 397.65298096 605.80664062 397.65298096 605.609375 399.33935547 C596.01840403 478.20955076 562.94507644 556.0242093 501 608 C500.4534375 608.46035645 499.906875 608.92071289 499.34375 609.39501953 C442.29756143 657.24069728 370.97247647 681.97886853 297.8125 691.1875 C296.61149658 691.3424292 295.41049316 691.4973584 294.1730957 691.65698242 C289.78681858 692.17759954 285.39940473 692.60784909 281 693 C280.05430145 693.08660889 279.10860291 693.17321777 278.13424683 693.26245117 C251.9579102 695.54267055 225.66486835 695.50511384 199.40837383 695.57849789 C191.72266793 695.60024291 184.03829643 695.64984033 176.35304826 695.73748839 C170.21268547 695.80506821 164.07284464 695.82876592 157.93213081 695.83689499 C155.34490957 695.84661334 152.75770119 695.86980362 150.17072868 695.90697098 C146.57754817 695.95555071 142.98769368 695.9538748 139.39428711 695.93994141 C137.81028862 695.97837158 137.81028862 695.97837158 136.19429016 696.01757812 C129.15961072 695.91804065 129.15961072 695.91804065 125.84092903 693.29070663 C124.0455693 691.2725782 122.50577998 689.24004531 121 687 C120.06194656 685.72210636 119.12326083 684.4446763 118.18359375 683.16796875 C117.26423371 681.84391116 116.34900787 680.51697537 115.4375 679.1875 C111.06987809 672.90934811 106.61537863 666.70765598 102.0625 660.5625 C97.5020402 654.4028448 92.97621419 648.22116749 88.5 642 C84.03991728 635.80336797 79.53750756 629.64015924 75 623.5 C69.91794922 616.6229644 64.88997203 609.70966917 59.89453125 602.76953125 C55.9660758 597.31915601 51.99252972 591.90357306 48 586.5 C43.21260089 580.01207054 38.43278002 573.51882183 33.6875 567 C32.8512207 565.86014648 32.8512207 565.86014648 31.99804688 564.69726562 C31.23137695 563.64055664 31.23137695 563.64055664 30.44921875 562.5625 C29.99893311 561.94503906 29.54864746 561.32757812 29.0847168 560.69140625 C28 559 28 559 27 556 C26.21761963 556.00523682 25.43523926 556.01047363 24.62915039 556.01586914 C21.10694167 556.03657106 17.5847457 556.04963838 14.0625 556.0625 C12.83080078 556.07087891 11.59910156 556.07925781 10.33007812 556.08789062 C9.16025391 556.09111328 7.99042969 556.09433594 6.78515625 556.09765625 C5.70113525 556.10289307 4.61711426 556.10812988 3.50024414 556.11352539 C1 556 1 556 0 555 C-0.09907552 552.06210019 -0.13174265 549.14767913 -0.12304783 546.20931149 C-0.12420167 545.27111025 -0.12535552 544.33290901 -0.12654433 543.36627743 C-0.12921907 540.18076745 -0.12468182 536.99530668 -0.12025452 533.80979919 C-0.12069004 531.51967182 -0.12156461 529.22954448 -0.12284368 526.93941742 C-0.12509229 520.61379701 -0.1210624 514.28819335 -0.11606562 507.96257508 C-0.11172056 501.85165353 -0.1130248 495.74073191 -0.11374746 489.62980929 C-0.11506351 477.12338151 -0.11171184 464.616959 -0.10573006 452.11053276 C-0.09981967 439.72172456 -0.09596545 427.33291856 -0.09487724 414.94410896 C-0.0948085 414.17475524 -0.09473976 413.40540152 -0.09466894 412.61273404 C-0.09433062 408.70581808 -0.09402923 404.79890211 -0.09374207 400.89198614 C-0.09163982 373.19564877 -0.08489735 345.49931427 -0.07543945 317.80297852 C-0.06625995 290.8908693 -0.05917392 263.97876086 -0.05493164 237.06665039 C-0.05480011 236.23758089 -0.05466859 235.40851138 -0.05453308 234.55431856 C-0.05321459 226.22871123 -0.05193877 217.90310389 -0.05069422 209.57749654 C-0.04815778 192.61620391 -0.04533653 175.65491133 -0.04234314 158.69361877 C-0.0421372 157.52375518 -0.0421372 157.52375518 -0.04192711 156.33025798 C-0.03272134 104.22017078 -0.0168548 52.11008522 0 0 Z M181 173 C181 287.51 181 402.02 181 520 C239.32551758 520.81817067 239.32551758 520.81817067 296 512 C296.76070801 511.81211914 297.52141602 511.62423828 298.30517578 511.43066406 C326.65804079 504.26420438 352.81060732 490.08948527 374 470 C375.43666016 468.66001953 375.43666016 468.66001953 376.90234375 467.29296875 C397.69917722 447.5093834 410.53213643 422.03229482 417.3125 394.375 C417.55516602 393.38685303 417.79783203 392.39870605 418.04785156 391.38061523 C421.40341547 376.88690477 422.38389699 362.62680271 422.3125 347.8125 C422.31034485 347.00262634 422.3081897 346.19275269 422.30596924 345.3583374 C422.25205645 332.69631202 421.7170974 320.40906256 419 308 C418.80664062 307.09217773 418.61328125 306.18435547 418.4140625 305.24902344 C412.83721077 279.8519718 402.44756899 255.53269147 385 236 C384.23558594 235.12730469 383.47117187 234.25460937 382.68359375 233.35546875 C380.485326 230.87451344 378.25417723 228.43015389 376 226 C375.17628906 225.09507812 375.17628906 225.09507812 374.3359375 224.171875 C365.37406362 214.72438234 354.21569527 207.45752152 343 201 C341.31003906 200.01386719 341.31003906 200.01386719 339.5859375 199.0078125 C329.20805672 193.11870879 318.24951175 188.91745637 307 185 C306.29182129 184.75121094 305.58364258 184.50242187 304.85400391 184.24609375 C295.5289429 181.04396341 285.998897 179.09702656 276.3125 177.3125 C274.68526001 177.00856323 274.68526001 177.00856323 273.02514648 176.69848633 C242.35310843 171.33943135 212.29077776 173 181 173 Z " fill="#4F58C9" transform="translate(1182,1575)"/>
<path d="M0 0 C1.57255554 0.00373123 1.57255554 0.00373123 3.17687988 0.00753784 C90.85245914 0.32797735 186.89487423 31.72965263 252.375 91.3125 C251.10924249 93.95648662 249.73824713 96.36117577 248.046875 98.75390625 C247.58418213 99.4099585 247.12148926 100.06601074 246.64477539 100.74194336 C246.14324951 101.44585205 245.64172363 102.14976074 245.125 102.875 C244.59704834 103.61951416 244.06909668 104.36402832 243.52514648 105.13110352 C238.97410438 111.52412318 234.32776388 117.84512811 229.65917969 124.15258789 C225.69323718 129.51248413 221.76917367 134.90026869 217.875 140.3125 C212.83506391 147.31475341 207.73286473 154.26863449 202.60546875 161.20703125 C198.66084596 166.55107676 194.75530944 171.92160781 190.875 177.3125 C185.84014839 184.30739116 180.74455416 191.25504316 175.62084961 198.18505859 C171.51884819 203.74024567 167.46796512 209.33025196 163.4375 214.9375 C159.20325172 220.82603861 154.92128283 226.65857735 150.375 232.3125 C146.75720417 230.74394516 144.14962716 228.51943876 141.1875 225.9375 C98.30431504 189.62092786 42.3042517 170.77663874 -13.71679688 174.51904297 C-50.15582798 177.80850499 -84.63176212 192.27924105 -113.625 214.3125 C-114.55828125 215.00214844 -115.4915625 215.69179687 -116.453125 216.40234375 C-130.42894734 227.22717547 -143.73056023 240.65407071 -153.625 255.3125 C-154.08922363 255.99183594 -154.55344727 256.67117188 -155.03173828 257.37109375 C-171.09657164 281.12137679 -181.86366074 307.01139741 -186.625 335.3125 C-186.74214355 336.0019873 -186.85928711 336.69147461 -186.97998047 337.40185547 C-194.560099 384.26793748 -181.61978394 434.00762047 -154.4375 472.625 C-149.89860145 478.90291767 -144.94503029 484.68135683 -139.625 490.3125 C-138.49537767 491.64191948 -137.37020688 492.97513718 -136.25 494.3125 C-104.93013117 529.98433238 -55.85257027 549.25452157 -9.625 554.3125 C-8.69429687 554.42335938 -7.76359375 554.53421875 -6.8046875 554.6484375 C37.59011788 559.02872496 88.7048829 552.11039271 124.375 523.3125 C145.26665377 505.85081924 158.17315089 483.1049265 161.0625 455.875 C161.165625 454.699375 161.26875 453.52375 161.375 452.3125 C161.705 451.6525 162.035 450.9925 162.375 450.3125 C109.905 450.3125 57.435 450.3125 3.375 450.3125 C3.375 404.7725 3.375 359.2325 3.375 312.3125 C121.185 312.3125 238.995 312.3125 360.375 312.3125 C363.93729004 336.06110027 363.93729004 336.06110027 364.54296875 342.93359375 C364.66202827 344.27676918 364.66202827 344.27676918 364.78349304 345.64707947 C365.71701114 357.20830392 365.72538028 368.78311635 365.6875 380.375 C365.68476578 382.11872391 365.68476578 382.11872391 365.68197632 383.89767456 C365.63542553 401.56225963 365.09646709 418.83189546 362.375 436.3125 C362.12556641 437.99811035 362.12556641 437.99811035 361.87109375 439.71777344 C350.46276692 515.2873754 314.91554222 583.87784336 259.375 636.3125 C258.776875 636.90804687 258.17875 637.50359375 257.5625 638.1171875 C251.01541292 641.69470294 241.66658234 638.3727685 234.8125 637 C198.03068031 629.93643658 160.98564397 628.13471264 123.59741211 628.19897461 C121.23907472 628.19925768 118.88073724 628.19909641 116.5223999 628.1985321 C110.20795808 628.1982488 103.8935358 628.20406895 97.57909846 628.21110606 C91.62212821 628.21677621 85.66515782 628.21773415 79.70818538 628.21875793 C67.93118573 628.22093145 56.15419311 628.22754474 44.37719727 628.23706055 C32.95597366 628.24627913 21.53475198 628.25333804 10.11352539 628.25756836 C9.40620153 628.25783108 8.69887768 628.25809381 7.97011977 628.25836449 C4.42069261 628.25966979 0.87126544 628.26093344 -2.67816174 628.26217639 C-31.99377979 628.27249591 -61.30938776 628.29090507 -90.625 628.3125 C-90.625 657.0225 -90.625 685.7325 -90.625 715.3125 C-94.03078405 716.44776135 -95.02337401 716.16029947 -98.40234375 715.23046875 C-99.86269043 714.82997314 -99.86269043 714.82997314 -101.35253906 714.42138672 C-102.94146973 713.96530029 -102.94146973 713.96530029 -104.5625 713.5 C-105.67206055 713.18305176 -106.78162109 712.86610352 -107.92480469 712.53955078 C-154.71082891 698.87782243 -199.20916995 677.47825977 -237.625 647.3125 C-238.51960938 646.61898437 -239.41421875 645.92546875 -240.3359375 645.2109375 C-258.00025151 631.31958376 -274.75090437 616.16980838 -289.625 599.3125 C-290.11419922 598.76271484 -290.60339844 598.21292969 -291.10742188 597.64648438 C-302.45384419 584.85409407 -313.30367258 571.22185882 -322.15126324 556.55527687 C-323.63632022 554.18610933 -323.63632022 554.18610933 -325.81050587 551.79938316 C-335.5400608 539.03503239 -333.91817876 523.59204889 -333.81618106 508.31521606 C-333.79774142 504.07775068 -333.83141514 499.84063386 -333.858078 495.60325623 C-333.90179011 487.31954872 -333.89707957 479.03656065 -333.87438925 470.75279547 C-333.85674425 464.01505791 -333.85643477 457.27752447 -333.86828041 450.53977585 C-333.86994823 449.57811541 -333.87161605 448.61645498 -333.87333441 447.62565332 C-333.87678451 445.6715807 -333.88026814 443.71750814 -333.88378493 441.76343565 C-333.91457001 423.46956623 -333.88957013 405.17609694 -333.84579752 386.88227527 C-333.8096887 371.21456574 -333.82367841 355.547545 -333.8737793 339.87988281 C-333.93205785 321.65129487 -333.95734954 303.42312803 -333.93191797 285.19445074 C-333.92930289 283.24725245 -333.92673642 281.3000541 -333.92421913 279.35285568 C-333.92297136 278.39499812 -333.9217236 277.43714056 -333.92043802 276.45025701 C-333.91397965 269.7283227 -333.93097497 263.00668686 -333.95738792 256.28480911 C-333.98905876 248.08155968 -333.98480816 239.87924628 -333.93563255 231.67606832 C-333.91148372 227.49721055 -333.90276989 223.31995208 -333.93817902 219.14113808 C-334.07421934 201.75088451 -334.06794121 187.38824622 -322.625 173.3125 C-321.39149659 171.47552357 -320.17014253 169.63018695 -318.97265625 167.76953125 C-317.88555132 166.2157635 -316.79060833 164.6674472 -315.6875 163.125 C-314.79720093 161.86876831 -314.79720093 161.86876831 -313.88891602 160.5871582 C-302.10012231 144.06955317 -289.21332396 128.43851791 -274.625 114.3125 C-271.95566433 111.66055413 -269.3073349 108.99000099 -266.6796875 106.296875 C-259.99550504 99.4753176 -253.13244383 93.23300448 -245.625 87.3125 C-244.59909302 86.45346143 -243.57576637 85.59133434 -242.5546875 84.7265625 C-224.30239153 69.43879439 -203.59978818 56.49827772 -182.625 45.3125 C-181.70750977 44.82088379 -180.79001953 44.32926758 -179.84472656 43.82275391 C-143.44097836 24.50534105 -104.05368447 11.9384966 -63.5 5.0625 C-62.7731601 4.9374408 -62.04632019 4.81238159 -61.29745483 4.68353271 C-40.92526237 1.21321623 -20.6522942 -0.07904454 0 0 Z " fill="#4A54C4" transform="translate(2365.625,1413.6875)"/>
<path d="M0 0 C15.51 0 31.02 0 47 0 C54.88967533 16.68701243 62.76543909 33.37125582 70.375 50.1875 C75.80656676 62.18893276 81.28660163 74.16668357 86.8125 86.125 C87.1878891 86.93756256 87.5632782 87.75012512 87.95004272 88.58731079 C90.63198791 94.39217602 93.31576143 100.19619497 96 106 C99.06376752 112.62441466 102.12668361 119.24922118 105.1875 125.875 C105.75171661 127.09624573 105.75171661 127.09624573 106.32733154 128.34216309 C111.7102075 139.99710115 117.04321125 151.6736631 122.34017944 163.36785889 C128.06188751 175.99455869 133.88792444 188.57178169 139.72824097 201.14398193 C145.03651839 212.57326715 150.30311941 224.01964246 155.5 235.5 C161.07879481 247.8230871 166.73997831 260.10636791 172.4375 272.375 C178.35052468 285.10786171 184.23690129 297.85188683 190.0625 310.625 C195.6755979 322.93191635 201.32484294 335.22157586 207 347.5 C212.69445003 359.82076052 218.36511964 372.15188061 224 384.5 C229.61584341 396.80559954 235.26443034 409.09567709 240.9375 421.375 C246.82523614 434.1191746 252.70350769 446.86758223 258.5625 459.625 C258.91159424 460.38506348 259.26068848 461.14512695 259.62036133 461.92822266 C262.43155921 468.0491176 265.24186913 474.17042012 268.05212402 480.29174805 C270.51349272 485.65302648 272.97531055 491.01409845 275.4375 496.375 C275.78593964 497.13375427 276.13437927 497.89250854 276.49337769 498.67425537 C280.50048557 507.39918016 284.51486014 516.12068641 288.54296875 524.8359375 C288.92091583 525.65370667 289.29886292 526.47147583 289.68826294 527.31402588 C290.45208677 528.9666751 291.21591123 530.61932402 291.97973633 532.27197266 C292.35767334 533.08972168 292.73561035 533.9074707 293.125 534.75 C293.50309814 535.56807129 293.88119629 536.38614258 294.27075195 537.22900391 C299.67310443 548.92119693 305.02573863 560.63480964 310.33990479 572.36730957 C316.06171216 584.99418868 321.88783838 597.57159644 327.72824097 610.14398193 C333.3369234 622.22007104 338.89556345 634.31686313 344.38137817 646.44924927 C348.25704346 655.01875946 352.18150836 663.5639687 356.15234375 672.08984375 C356.5912796 673.03304474 357.03021545 673.97624573 357.48245239 674.94802856 C359.65246139 679.60969028 361.82686327 684.26922799 364.0078125 688.92578125 C364.79570847 690.61582223 365.58347541 692.30592337 366.37109375 693.99609375 C366.73903549 694.77774399 367.10697723 695.55939423 367.48606873 696.36473083 C370 701.77317142 370 701.77317142 370 704 C303.01 704 236.02 704 167 704 C163.81578784 697.63157568 160.76638447 691.35647707 157.99609375 684.8203125 C157.63209976 683.96863495 157.26810577 683.1169574 156.89308167 682.23947144 C155.73833966 679.53586619 154.58778875 676.83050249 153.4375 674.125 C152.69494915 672.38399185 151.95211195 670.64310581 151.20898438 668.90234375 C148.80488401 663.26870083 146.40248521 657.6343319 144 652 C140.04 642.76 136.08 633.52 132 624 C46.53 623.67 -38.94 623.34 -127 623 C-127.33 624.65 -127.66 626.3 -128 628 C-128.50607166 629.36357743 -129.05773436 630.71101868 -129.65136719 632.03881836 C-129.99016403 632.80350937 -130.32896088 633.56820038 -130.67802429 634.35606384 C-131.04724503 635.17571121 -131.41646576 635.99535858 -131.796875 636.83984375 C-132.18241043 637.70698502 -132.56794586 638.57412628 -132.96516418 639.46754456 C-134.22225892 642.29290014 -135.4861292 645.11516996 -136.75 647.9375 C-138.48526612 651.83105631 -140.21720638 655.72608917 -141.94921875 659.62109375 C-142.38052597 660.58973358 -142.81183319 661.55837341 -143.25621033 662.55636597 C-145.8971467 668.49389788 -148.50915891 674.44281897 -151.08203125 680.41015625 C-151.38513214 681.11309311 -151.68823303 681.81602997 -152.0005188 682.54026794 C-153.39337307 685.77477549 -154.78109648 689.01142669 -156.16503906 692.24975586 C-156.64811523 693.37389893 -157.13119141 694.49804199 -157.62890625 695.65625 C-158.04213135 696.62369141 -158.45535645 697.59113281 -158.88110352 698.58789062 C-160 701 -160 701 -162 704 C-164.71169391 704.29434334 -167.19523458 704.39116317 -169.90921021 704.36076355 C-170.73579663 704.36332682 -171.56238306 704.3658901 -172.41401756 704.36853105 C-175.19954645 704.37349487 -177.98454011 704.35693349 -180.77001953 704.34057617 C-182.76043688 704.33973046 -184.75085517 704.34020395 -186.74127197 704.34190369 C-192.15841746 704.34276725 -197.57536517 704.32508321 -202.99246454 704.30418181 C-208.64860192 704.28547499 -214.30474344 704.28366932 -219.96090698 704.28010559 C-230.67775599 704.27076746 -241.39451359 704.2461298 -252.11132228 704.21605712 C-264.30943087 704.18256805 -276.50754373 704.16604094 -288.70568681 704.15097082 C-313.80384195 704.11958176 -338.90191586 704.06678697 -364 704 C-363.54059158 702.58732559 -363.07812676 701.17564497 -362.61442566 699.76437378 C-362.35722842 698.97813566 -362.10003119 698.19189754 -361.83504009 697.38183403 C-360.50859318 693.59833139 -358.82472386 690.00465792 -357.11328125 686.3828125 C-356.55261459 685.18026825 -356.55261459 685.18026825 -355.98062134 683.95343018 C-355.17912731 682.23560413 -354.37546034 680.51879051 -353.5697937 678.80291748 C-351.84906244 675.13792153 -350.13910387 671.46793425 -348.42866516 667.79812622 C-347.55245364 665.91823051 -346.67573223 664.03857238 -345.79850769 662.15914917 C-341.79872604 653.58531877 -337.85972528 644.98451984 -333.9375 636.375 C-327.93109267 623.20060627 -321.8737957 610.05034205 -315.79690552 596.9083252 C-310.77065066 586.03570461 -305.77992938 575.14785369 -300.83398438 564.23846436 C-299.89102362 562.16031376 -298.94593808 560.08314452 -298 558.00634766 C-297.40492331 556.69955548 -296.80987055 555.3927524 -296.21484375 554.0859375 C-295.93244843 553.46582794 -295.6500531 552.84571838 -295.35910034 552.20681763 C-293.71830273 548.59803467 -292.10266654 544.97913567 -290.50390625 541.3515625 C-289.81531452 539.81761389 -289.12653587 538.28374916 -288.4375 536.75 C-288.16341309 536.10691895 -287.88932617 535.46383789 -287.60693359 534.80126953 C-284.12576288 527.15121059 -277.32816058 523.87968126 -270.3125 520 C-251.286919 509.21407749 -233.60111129 496.43695843 -217.65625 481.46875 C-215.52450377 479.48747998 -213.36209906 477.60792973 -211.125 475.75 C-200.1016754 466.14756132 -190.73517067 454.66696124 -182 443 C-181.49114258 442.33162109 -180.98228516 441.66324219 -180.45800781 440.97460938 C-168.38907379 425.08323485 -158.46849367 407.96073916 -149.92236328 389.93945312 C-149.31177154 388.65556196 -148.69304718 387.37550426 -148.06591797 386.09960938 C-134.25371968 357.91844201 -126.16942832 326.66389509 -121.25 295.8125 C-121.05100098 294.56718506 -120.85200195 293.32187012 -120.64697266 292.03881836 C-117.64532601 272.14936659 -116.67254404 252.45037783 -116.73925781 232.34130859 C-116.74998679 228.50472213 -116.7392907 224.66860372 -116.7265625 220.83203125 C-116.72021861 207.67733349 -117.1336959 194.73330832 -118.57128906 181.65429688 C-119.32160368 174.14539927 -119.65604055 168.2647556 -116.3515625 161.2734375 C-116.06724869 160.65897766 -115.78293488 160.04451782 -115.49000549 159.41143799 C-114.5508562 157.39143264 -113.58820643 155.38363021 -112.625 153.375 C-111.95707744 151.95048549 -111.29085473 150.52517289 -110.6262207 149.09912109 C-109.19729097 146.03823807 -107.75935838 142.98179949 -106.31591797 139.92773438 C-103.86239995 134.72391343 -101.46155661 129.49651366 -99.06640625 124.265625 C-98.2459967 122.47604409 -97.42552193 120.68649308 -96.60498047 118.89697266 C-96.20422302 118.02292786 -95.80346558 117.14888306 -95.39056396 116.24835205 C-94.99355286 115.38264587 -94.59654175 114.5169397 -94.1875 113.625 C-93.79210022 112.76267761 -93.39670044 111.90035522 -92.98931885 111.01190186 C-91.86411854 108.56134457 -90.73533938 106.11246929 -89.60546875 103.6640625 C-89.26963272 102.93117004 -88.93379669 102.19827759 -88.58778381 101.44317627 C-87.21106804 98.46667348 -85.82331381 95.73497071 -84 93 C-81.27788357 92.71364693 -78.78507857 92.62172737 -76.06201172 92.65942383 C-74.81271472 92.65888142 -74.81271472 92.65888142 -73.5381794 92.65832806 C-70.83510647 92.66057199 -68.13264978 92.68343908 -65.4296875 92.70703125 C-63.7637563 92.71144062 -62.09782095 92.71450207 -60.43188477 92.71618652 C-54.24619324 92.73193233 -48.06059061 92.77381581 -41.875 92.8125 C-21.146875 92.9053125 -21.146875 92.9053125 0 93 C0 62.31 0 31.62 0 0 Z M2 325 C1.63986816 325.84554443 1.27973633 326.69108887 0.90869141 327.56225586 C-6.56982593 345.10476101 -14.12267357 362.61151131 -21.8125 380.0625 C-28.3359046 394.86763219 -34.76058244 409.7118072 -41.10604858 424.59405518 C-45.38996955 434.63974028 -49.71594079 444.66429705 -54.1328125 454.65234375 C-54.55318787 455.60396393 -54.97356323 456.55558411 -55.40667725 457.53604126 C-57.43531143 462.12580026 -59.47050718 466.71248436 -61.515625 471.29492188 C-62.24236302 472.93481806 -62.9689348 474.57478793 -63.6953125 476.21484375 C-64.03184845 476.96273666 -64.3683844 477.71062958 -64.71511841 478.48118591 C-66.04091571 481.48611935 -67 483.67757231 -67 487 C-20.8 487 25.4 487 73 487 C67.7738294 474.23600358 67.7738294 474.23600358 62.37890625 461.546875 C62.07755768 460.85115891 61.77620911 460.15544281 61.46572876 459.43864441 C60.499386 457.20848611 59.53094556 454.97924584 58.5625 452.75 C57.86287204 451.13622064 57.16341333 449.5223679 56.46411133 447.90844727 C55.02067629 444.57751425 53.57653452 441.24688908 52.13183594 437.91650391 C48.81088694 430.25950564 45.49939244 422.59841868 42.1875 414.9375 C41.53304361 413.42374534 40.87858395 411.9099921 40.22412109 410.39624023 C39.2164805 408.06559522 38.20886258 405.73494042 37.20132446 403.4042511 C35.34321779 399.10612548 33.48450586 394.80826267 31.625 390.51074219 C29.55744966 385.73236591 27.49086774 380.95357181 25.42492676 376.17449951 C24.60449582 374.27695452 23.78377959 372.37953284 22.96276855 370.48223877 C19.07424107 361.49499683 15.19143017 352.50666754 11.421875 343.46875 C11.15889114 342.83962204 10.89590729 342.21049408 10.62495422 341.56230164 C9.44729242 338.74291351 8.27719991 335.92082365 7.11987305 333.09301758 C6.72840088 332.15095459 6.33692871 331.2088916 5.93359375 330.23828125 C5.4394397 329.032323 5.4394397 329.032323 4.93530273 327.80200195 C4.1309702 325.82055081 4.1309702 325.82055081 2 325 Z " fill="#4C56C7" transform="translate(2996,2160)"/>
<path d="M0 0 C0.87537415 0.00359528 1.75074829 0.00719055 2.65264893 0.01089478 C4.02812141 0.01067574 4.02812141 0.01067574 5.43138123 0.01045227 C8.47773564 0.01115177 11.52402973 0.01894589 14.57037354 0.02676392 C16.67644721 0.02862796 18.78252132 0.03005193 20.88859558 0.03105164 C26.44364612 0.03487786 31.99867069 0.04470903 37.55371094 0.05575562 C43.21746469 0.0659675 48.88122262 0.07054878 54.54498291 0.07559204 C65.66673914 0.0863312 76.78847606 0.10340887 87.91021729 0.12442017 C87.91081437 1.07611946 87.91141146 2.02781874 87.91202664 3.00835741 C87.94778979 59.45020982 88.00460915 115.89200985 88.08813824 172.33381268 C88.09816882 179.11525192 88.10800414 185.89669143 88.11773682 192.6781311 C88.11870862 193.35294118 88.11968043 194.02775126 88.12068168 194.72301012 C88.15205038 216.56851166 88.17054315 238.41400087 88.18230975 260.25952102 C88.19482226 283.35934187 88.22211038 306.4591106 88.26483035 329.55889857 C88.28993069 343.38734124 88.30333709 357.21569269 88.30164686 371.04415847 C88.30161704 380.53491887 88.31629814 390.02558655 88.34238157 399.5163108 C88.35698695 404.98681855 88.36526528 410.45713615 88.35601997 415.92765999 C88.347681 420.94709447 88.35802959 425.96614833 88.38255391 430.98552664 C88.38819779 432.79067178 88.38728456 434.5958535 88.37872973 436.40098719 C88.2749316 460.37887109 94.22168159 481.01609084 108.91021729 500.12442017 C109.45033447 500.84887329 109.99045166 501.57332642 110.54693604 502.31973267 C125.12215253 520.45614815 150.64735022 533.2374664 173.55767822 535.92080688 C204.00753363 538.55625514 232.79646919 532.38614015 256.75787354 512.79629517 C259.20274766 510.62799051 261.56406266 508.39858088 263.91021729 506.12442017 C264.52123291 505.5868811 265.13224854 505.04934204 265.76177979 504.49551392 C281.15705989 490.47104643 289.85432275 467.43795339 291.02769282 447.08691345 C291.21744718 441.56454663 291.19549354 436.04024159 291.18869019 430.51533508 C291.19370083 428.65207755 291.19957887 426.78882219 291.20624292 424.92556983 C291.22196387 419.83562346 291.22546922 414.74573241 291.22689152 409.6557647 C291.23059944 404.15558513 291.24576181 398.65543542 291.25950623 393.15527344 C291.28173926 383.63583886 291.29677631 374.11641496 291.30687332 364.59696007 C291.32148224 350.83356698 291.34702528 337.07021112 291.37520461 323.30683992 C291.42063241 300.97464064 291.45728078 278.64243427 291.48834229 256.31021118 C291.51852988 234.62139951 291.55287937 212.93260091 291.59283447 191.24380493 C291.59406548 190.57468367 291.59529648 189.9055624 291.59656479 189.21616474 C291.60893216 182.49627309 291.62138384 175.77638159 291.63389727 169.05649021 C291.73874813 112.74581858 291.82939582 56.43513108 291.91021729 0.12442017 C304.54017213 0.10129885 317.17012199 0.08350616 329.80009365 0.07260799 C335.66403892 0.0673787 341.52796977 0.06028022 347.39190674 0.04898071 C353.0458344 0.03815347 358.69974815 0.03214368 364.35368538 0.02954292 C366.51595339 0.02768838 368.67822059 0.02406721 370.84048271 0.01869011 C373.85780386 0.01148184 376.87506672 0.01042913 379.89239502 0.01089478 C380.79582138 0.0072995 381.69924774 0.00370422 382.63005066 0 C388.79616512 0.010368 388.79616512 0.010368 389.91021729 1.12442017 C390.00790101 3.04267878 390.03393042 4.96459471 390.03326511 6.88533878 C390.03525616 8.14483563 390.03724721 9.40433249 390.03929859 10.70199591 C390.036445 12.11787437 390.03349939 13.53375264 390.0304718 14.94963074 C390.03090737 16.43954691 390.03178202 17.92946301 390.03306097 19.4193787 C390.03530871 23.53309718 390.03128085 27.64678988 390.02628291 31.76050508 C390.02198258 36.18929508 390.02342453 40.6180835 390.02418518 45.046875 C390.02471068 52.72654632 390.02156116 60.40620918 390.01594734 68.08587837 C390.00783587 79.1895243 390.00521749 90.29316612 390.00395935 101.3968147 C390.00176827 119.40977861 389.99510669 137.422738 389.98565674 155.43569946 C389.97648406 172.9383034 389.96940252 190.44090611 389.96514893 207.94351196 C389.96475484 209.56057598 389.96475484 209.56057598 389.96435279 211.21030796 C389.9630478 216.61828704 389.96178408 222.02626613 389.96054089 227.43424523 C389.95016655 272.33097334 389.93254672 317.22769652 389.91021729 362.12442017 C390.9979393 362.12219955 392.08566132 362.11997894 393.2063446 362.11769104 C403.43375239 362.09746038 413.66115615 362.0824484 423.88857937 362.07260799 C429.14718392 362.06737897 434.40577239 362.06028098 439.66436768 362.04898071 C444.73474855 362.03815251 449.80511391 362.03214348 454.87550545 362.02954292 C456.81448677 362.02768855 458.75346719 362.02406771 460.69244194 362.01869011 C463.39843488 362.01148056 466.10436284 362.01042919 468.81036377 362.01089478 C470.02524223 362.00550186 470.02524223 362.00550186 471.2646637 362 C476.79616512 362.010368 476.79616512 362.010368 477.91021729 363.12442017 C478.02163284 366.15835153 478.06762582 369.16971607 478.0713501 372.20449829 C478.076315 373.1593512 478.08127991 374.1142041 478.08639526 375.09799194 C478.10109079 378.28389192 478.10783958 381.46974172 478.11334229 384.65567017 C478.11909828 386.88121542 478.12485595 389.10676067 478.13061523 391.33230591 C478.14115325 396.02342967 478.14697408 400.71453622 478.15045166 405.40567017 C478.15586958 411.34571757 478.17973853 417.28552788 478.20842361 423.22550201 C478.22730819 427.83996167 478.2322696 432.45436793 478.23378754 437.06886292 C478.23676912 439.25317141 478.24464029 441.43748004 478.25797272 443.62174988 C478.37227073 463.83067849 476.83475461 483.96231129 472.22271729 503.68692017 C471.96925537 504.79349976 471.71579346 505.90007935 471.45465088 507.04019165 C467.17215431 525.07574483 461.05660651 542.47730276 452.91021729 559.12442017 C452.47725342 560.01484009 452.04428955 560.90526001 451.59820557 561.82266235 C434.97350492 595.67386276 410.77282888 626.85217803 380.91021729 650.12442017 C379.40008057 651.32518188 379.40008057 651.32518188 377.85943604 652.55020142 C364.3683201 663.19911125 350.07505427 672.06149785 334.91021729 680.12442017 C334.26536377 680.47214478 333.62051025 680.81986938 332.95611572 681.1781311 C294.11365131 702.01200134 247.9630594 714.12419614 203.81256104 714.32754517 C202.78832535 714.33455948 201.76408966 714.34157379 200.70881653 714.34880066 C197.42173819 714.36620726 194.13484002 714.37265296 190.84771729 714.37442017 C189.16307373 714.37543228 189.16307373 714.37543228 187.44439697 714.37646484 C171.05346459 714.36080117 155.09316239 713.94446755 138.91021729 711.12442017 C137.33772217 710.8670105 137.33772217 710.8670105 135.73345947 710.60440063 C78.22250752 701.08164905 23.98940699 675.73692101 -18.08978271 635.12442017 C-18.76476807 634.47666626 -19.43975342 633.82891235 -20.13519287 633.16152954 C-29.60627871 624.03060694 -38.32866359 614.74972544 -46.08978271 604.12442017 C-46.94784423 602.97337 -47.80591723 601.82232839 -48.66400146 600.67129517 C-54.7025306 592.48107978 -60.09365269 583.9856345 -65.08978271 575.12442017 C-65.51904053 574.36838501 -65.94829834 573.61234985 -66.39056396 572.83340454 C-82.93506737 543.39181707 -92.5499457 511.50443989 -97.08978271 478.12442017 C-97.19580811 477.35630005 -97.3018335 476.58817993 -97.41107178 475.79678345 C-98.12396926 470.12216917 -98.08978271 464.94968114 -98.08978271 459.12442017 C-68.05978271 459.12442017 -38.02978271 459.12442017 -7.08978271 459.12442017 C-7.09501953 445.25547729 -7.10025635 431.38653442 -7.10565186 417.09732056 C-7.12168474 372.77688303 -7.13281936 328.45644535 -7.14084804 284.1360057 C-7.14209544 277.25755075 -7.14339198 270.37909581 -7.14471436 263.50064087 C-7.14484511 262.81613367 -7.14497587 262.13162648 -7.1451106 261.42637664 C-7.14937575 239.21953634 -7.15688989 217.01269858 -7.16607994 194.80585982 C-7.17576967 171.34910727 -7.18177632 147.89235684 -7.18387121 124.43560213 C-7.18524677 110.37527315 -7.18959917 96.31495145 -7.19769918 82.25462472 C-7.20296465 72.62713471 -7.20458747 62.9996485 -7.20328409 53.37215716 C-7.2026404 47.80862122 -7.20366174 42.24509804 -7.20898819 36.68156433 C-7.21382069 31.59715988 -7.21412236 26.51277688 -7.21068161 21.42837148 C-7.21025577 19.58045161 -7.21155276 17.73253046 -7.2146659 15.88461316 C-7.21862742 13.38978972 -7.21654765 10.89504572 -7.21283054 8.40022373 C-7.21545756 7.66806053 -7.21808457 6.93589734 -7.22079119 6.18154737 C-7.1987011 -0.29375278 -6.36797661 0.01104856 0 0 Z " fill="#535CCD" transform="translate(1885.0897827148438,2371.8755798339844)"/>
</svg>
